<svg width="550" height="825" viewBox="0 0 550 825" fill="none" xmlns="http://www.w3.org/2000/svg">
<g clip-path="url(#clip0_8332_3283)">
<path d="M533.5 0H16.5C7.3873 0 0 7.80349 0 17.4296V807.57C0 817.197 7.3873 825 16.5 825H533.5C542.613 825 550 817.197 550 807.57V17.4296C550 7.80349 542.613 0 533.5 0Z" fill="white"></path>
<path d="M550 0H0V130H550V0Z" fill="#475569"></path>
<text fill="white" style="white-space: pre" xml:space="preserve" font-family="Roboto Flex" font-size="52" font-weight="bold" letter-spacing="0em"><tspan x="50.2637" y="83.2734">CAGED - RÉ</tspan></text>
<text fill="#475569" style="white-space: pre" xml:space="preserve" font-family="Roboto Flex" font-size="80" font-weight="bold" letter-spacing="0em"><tspan x="194.305" y="239.344">Dm7</tspan></text>
<path opacity="0.8" d="M85.9375 370.885V748.526" stroke="#475569"></path>
<path opacity="0.8" d="M161.562 370.885V748.526" stroke="#475569"></path>
<path opacity="0.8" d="M237.188 370.885V748.526" stroke="#475569"></path>
<path opacity="0.8" d="M312.812 370.885V748.526" stroke="#475569"></path>
<path opacity="0.8" d="M388.438 370.885V748.526" stroke="#475569"></path>
<path opacity="0.8" d="M464.062 370.885V748.526" stroke="#475569"></path>
<path d="M465.438 367.978H84.5625V373.787H465.438V367.978Z" fill="#475569"></path>
<path opacity="0.6" d="M85.9375 446.411H464.062" stroke="#475569"></path>
<path opacity="0.6" d="M85.9375 521.939H464.062" stroke="#475569"></path>
<path opacity="0.6" d="M85.9375 597.468H464.062" stroke="#475569"></path>
<path opacity="0.6" d="M85.9375 672.996H464.062" stroke="#475569"></path>
<path opacity="0.6" d="M85.9375 748.524H464.062" stroke="#475569"></path>
<path d="M237.371 357.66C251.8 357.66 263.496 345.305 263.496 330.064C263.496 314.822 251.8 302.467 237.371 302.467C222.943 302.467 211.246 314.822 211.246 330.064C211.246 345.305 222.943 357.66 237.371 357.66Z" fill="#475569"></path>
<text fill="white" style="white-space: pre" xml:space="preserve" font-family="Roboto Flex" font-size="30" font-weight="bold" letter-spacing="0em"><tspan x="228.171" y="340.27">R</tspan></text>
<path d="M464.793 438.05C479.221 438.05 490.918 425.695 490.918 410.453C490.918 395.212 479.221 382.856 464.793 382.856C450.365 382.856 438.668 395.212 438.668 410.453C438.668 425.695 450.365 438.05 464.793 438.05Z" fill="#E42E41"></path>
<text fill="white" style="white-space: pre" xml:space="preserve" font-family="Roboto Flex" font-size="30" font-weight="bold" letter-spacing="0em"><tspan x="447.501" y="420.659">b3</tspan></text>
<path d="M388.668 438.05C403.096 438.05 414.793 425.695 414.793 410.453C414.793 395.212 403.096 382.856 388.668 382.856C374.24 382.856 362.543 395.212 362.543 410.453C362.543 425.695 374.24 438.05 388.668 438.05Z" fill="#33ABE6"></path>
<text fill="white" style="white-space: pre" xml:space="preserve" font-family="Roboto Flex" font-size="30" font-weight="bold" letter-spacing="0em"><tspan x="371.376" y="420.659">b7</tspan></text>
<path d="M312.544 511.406C326.972 511.406 338.669 499.05 338.669 483.809C338.669 468.567 326.972 456.212 312.544 456.212C298.116 456.212 286.419 468.567 286.419 483.809C286.419 499.05 298.116 511.406 312.544 511.406Z" fill="#2BE471"></path>
<text fill="white" style="white-space: pre" xml:space="preserve" font-family="Roboto Flex" font-size="30" font-weight="bold" letter-spacing="0em"><tspan x="294.478" y="494.015">P5</tspan></text>
<path d="M79.0625 325.857L92.8125 340.382" stroke="#475569" stroke-width="2"></path>
<path d="M155.104 325.579L168.854 340.104" stroke="#475569" stroke-width="2"></path>
<path d="M92.8125 325.857L79.0625 340.382" stroke="#475569" stroke-width="2"></path>
<path d="M168.854 325.579L155.104 340.104" stroke="#475569" stroke-width="2"></path>
</g>
<rect x="1" y="1" width="548" height="823" rx="32" stroke="#475569" stroke-width="2"></rect>
<defs>
<clipPath id="clip0_8332_3283">
<rect width="550" height="825" rx="33" fill="white"></rect>
</clipPath>
</defs>
</svg>