<svg width="550" height="825" viewBox="0 0 550 825" fill="none" xmlns="http://www.w3.org/2000/svg">
<g clip-path="url(#clip0_8332_2231)">
<path d="M533.5 0H16.5C7.3873 0 0 7.80349 0 17.4296V807.57C0 817.197 7.3873 825 16.5 825H533.5C542.613 825 550 817.197 550 807.57V17.4296C550 7.80349 542.613 0 533.5 0Z" fill="white"></path>
<path d="M550 0H0V130H550V0Z" fill="#475569"></path>
<text fill="white" style="white-space: pre" xml:space="preserve" font-family="Roboto Flex" font-size="52" font-weight="bold" letter-spacing="0em"><tspan x="50.1543" y="83.2734">CAGED - LA</tspan></text>
<text fill="#475569" style="white-space: pre" xml:space="preserve" font-family="Roboto Flex" font-size="80" font-weight="bold" letter-spacing="0em"><tspan x="162.382" y="239.344">Amaj7</tspan></text>
<path opacity="0.8" d="M85.9375 370.885V748.526" stroke="#475569"></path>
<path opacity="0.8" d="M161.562 370.885V748.526" stroke="#475569"></path>
<path opacity="0.8" d="M237.188 370.885V748.526" stroke="#475569"></path>
<path opacity="0.8" d="M312.812 370.885V748.526" stroke="#475569"></path>
<path opacity="0.8" d="M388.438 370.885V748.526" stroke="#475569"></path>
<path opacity="0.8" d="M464.062 370.885V748.526" stroke="#475569"></path>
<path d="M465.438 367.979H84.5625V373.788H465.438V367.979Z" fill="#475569"></path>
<path opacity="0.6" d="M85.9375 446.41H464.062" stroke="#475569"></path>
<path opacity="0.6" d="M85.9375 521.939H464.062" stroke="#475569"></path>
<path opacity="0.6" d="M85.9375 597.467H464.062" stroke="#475569"></path>
<path opacity="0.6" d="M85.9375 672.996H464.062" stroke="#475569"></path>
<path opacity="0.6" d="M85.9375 748.523H464.062" stroke="#475569"></path>
<path d="M237.371 511.407C251.8 511.407 263.496 499.051 263.496 483.81C263.496 468.568 251.8 456.213 237.371 456.213C222.943 456.213 211.246 468.568 211.246 483.81C211.246 499.051 222.943 511.407 237.371 511.407Z" fill="#2BE471"></path>
<text fill="white" style="white-space: pre" xml:space="preserve" font-family="Roboto Flex" font-size="30" font-weight="bold" letter-spacing="0em"><tspan x="228.976" y="494.016">E</tspan></text>
<path d="M464.793 357.66C479.221 357.66 490.918 345.305 490.918 330.064C490.918 314.822 479.221 302.467 464.793 302.467C450.365 302.467 438.668 314.822 438.668 330.064C438.668 345.305 450.365 357.66 464.793 357.66Z" fill="#2BE471"></path>
<text fill="white" style="white-space: pre" xml:space="preserve" font-family="Roboto Flex" font-size="30" font-weight="bold" letter-spacing="0em"><tspan x="456.398" y="340.27">E</tspan></text>
<path d="M388.668 511.407C403.096 511.407 414.793 499.051 414.793 483.81C414.793 468.568 403.096 456.213 388.668 456.213C374.24 456.213 362.543 468.568 362.543 483.81C362.543 499.051 374.24 511.407 388.668 511.407Z" fill="#E42E41"></path>
<text fill="white" style="white-space: pre" xml:space="preserve" font-family="Roboto Flex" font-size="30" font-weight="bold" letter-spacing="0em"><tspan x="367.469" y="494.016">C#</tspan></text>
<path d="M312.544 436.041C326.972 436.041 338.669 423.686 338.669 408.444C338.669 393.203 326.972 380.848 312.544 380.848C298.116 380.848 286.419 393.203 286.419 408.444C286.419 423.686 298.116 436.041 312.544 436.041Z" fill="#33ABE6"></path>
<text fill="white" style="white-space: pre" xml:space="preserve" font-family="Roboto Flex" font-size="30" font-weight="bold" letter-spacing="0em"><tspan x="291.153" y="418.65">G#</tspan></text>
<path d="M162.197 357.66C176.626 357.66 188.322 345.305 188.322 330.064C188.322 314.822 176.626 302.467 162.197 302.467C147.769 302.467 136.072 314.822 136.072 330.064C136.072 345.305 147.769 357.66 162.197 357.66Z" fill="#475569"></path>
<text fill="white" style="white-space: pre" xml:space="preserve" font-family="Roboto Flex" font-size="30" font-weight="bold" letter-spacing="0em"><tspan x="151.935" y="340.27">A</tspan></text>
<path d="M79.0625 325.857L92.8125 340.382" stroke="#475569" stroke-width="2"></path>
<path d="M92.8125 325.857L79.0625 340.382" stroke="#475569" stroke-width="2"></path>
</g>
<rect x="1" y="1" width="548" height="823" rx="32" stroke="#475569" stroke-width="2"></rect>
<defs>
<clipPath id="clip0_8332_2231">
<rect width="550" height="825" rx="33" fill="white"></rect>
</clipPath>
</defs>
</svg>