<svg width="550" height="825" viewBox="0 0 550 825" fill="none" xmlns="http://www.w3.org/2000/svg">
<g clip-path="url(#clip0_8332_3443)">
<path d="M533.5 0H16.5C7.3873 0 0 7.80349 0 17.4296V807.57C0 817.197 7.3873 825 16.5 825H533.5C542.613 825 550 817.197 550 807.57V17.4296C550 7.80349 542.613 0 533.5 0Z" fill="white"></path>
<path d="M550 0H0V130H550V0Z" fill="#475569"></path>
<text fill="white" style="white-space: pre" xml:space="preserve" font-family="Roboto Flex" font-size="52" font-weight="bold" letter-spacing="0em"><tspan x="50.2637" y="83.2734">CAGED - RÉ</tspan></text>
<text fill="#475569" style="white-space: pre" xml:space="preserve" font-family="Roboto Flex" font-size="80" font-weight="bold" letter-spacing="0em"><tspan x="162.211" y="239.344">Dsus2</tspan></text>
<path opacity="0.8" d="M85.9375 370.885V748.526" stroke="#475569"></path>
<path opacity="0.8" d="M161.562 370.885V748.526" stroke="#475569"></path>
<path opacity="0.8" d="M237.188 370.885V748.526" stroke="#475569"></path>
<path opacity="0.8" d="M312.812 370.885V748.526" stroke="#475569"></path>
<path opacity="0.8" d="M388.438 370.885V748.526" stroke="#475569"></path>
<path opacity="0.8" d="M464.062 370.885V748.526" stroke="#475569"></path>
<path d="M465.438 367.979H84.5625V373.788H465.438V367.979Z" fill="#475569"></path>
<path opacity="0.6" d="M85.9375 446.41H464.062" stroke="#475569"></path>
<path opacity="0.6" d="M85.9375 521.939H464.062" stroke="#475569"></path>
<path opacity="0.6" d="M85.9375 597.467H464.062" stroke="#475569"></path>
<path opacity="0.6" d="M85.9375 672.996H464.062" stroke="#475569"></path>
<path opacity="0.6" d="M85.9375 748.523H464.062" stroke="#475569"></path>
<path d="M237.371 357.66C251.8 357.66 263.496 345.305 263.496 330.064C263.496 314.822 251.8 302.467 237.371 302.467C222.943 302.467 211.246 314.822 211.246 330.064C211.246 345.305 222.943 357.66 237.371 357.66Z" fill="#475569"></path>
<text fill="white" style="white-space: pre" xml:space="preserve" font-family="Roboto Flex" font-size="30" font-weight="bold" letter-spacing="0em"><tspan x="228.171" y="340.27">R</tspan></text>
<path d="M464.793 357.66C479.221 357.66 490.918 345.305 490.918 330.064C490.918 314.822 479.221 302.467 464.793 302.467C450.365 302.467 438.668 314.822 438.668 330.064C438.668 345.305 450.365 357.66 464.793 357.66Z" fill="#E4CE35"></path>
<text fill="white" style="white-space: pre" xml:space="preserve" font-family="Roboto Flex" font-size="30" font-weight="bold" letter-spacing="0em"><tspan x="441.556" y="340.27">M2</tspan></text>
<path d="M388.668 587.776C403.096 587.776 414.793 575.42 414.793 560.179C414.793 544.938 403.096 532.582 388.668 532.582C374.24 532.582 362.543 544.938 362.543 560.179C362.543 575.42 374.24 587.776 388.668 587.776Z" fill="#475569"></path>
<text fill="white" style="white-space: pre" xml:space="preserve" font-family="Roboto Flex" font-size="30" font-weight="bold" letter-spacing="0em"><tspan x="379.468" y="570.385">R</tspan></text>
<path d="M312.544 511.407C326.972 511.407 338.669 499.051 338.669 483.81C338.669 468.568 326.972 456.213 312.544 456.213C298.116 456.213 286.419 468.568 286.419 483.81C286.419 499.051 298.116 511.407 312.544 511.407Z" fill="#2BE471"></path>
<text fill="white" style="white-space: pre" xml:space="preserve" font-family="Roboto Flex" font-size="30" font-weight="bold" letter-spacing="0em"><tspan x="294.478" y="494.016">P5</tspan></text>
<path d="M79.0625 325.857L92.8125 340.382" stroke="#475569" stroke-width="2"></path>
<path d="M155.104 325.578L168.854 340.103" stroke="#475569" stroke-width="2"></path>
<path d="M92.8125 325.857L79.0625 340.382" stroke="#475569" stroke-width="2"></path>
<path d="M168.854 325.578L155.104 340.103" stroke="#475569" stroke-width="2"></path>
</g>
<rect x="1" y="1" width="548" height="823" rx="32" stroke="#475569" stroke-width="2"></rect>
<defs>
<clipPath id="clip0_8332_3443">
<rect width="550" height="825" rx="33" fill="white"></rect>
</clipPath>
</defs>
</svg>