<svg width="550" height="825" viewBox="0 0 550 825" fill="none" xmlns="http://www.w3.org/2000/svg">
<g clip-path="url(#clip0_8332_1831)">
<path d="M533.5 0H16.5C7.3873 0 0 7.80349 0 17.4296V807.57C0 817.197 7.3873 825 16.5 825H533.5C542.613 825 550 817.197 550 807.57V17.4296C550 7.80349 542.613 0 533.5 0Z" fill="white"></path>
<path d="M550 0H0V130H550V0Z" fill="#475569"></path>
<text fill="white" style="white-space: pre" xml:space="preserve" font-family="Roboto Flex" font-size="52" font-weight="bold" letter-spacing="0em"><tspan x="50.4629" y="83.2734">CAGED - SOL</tspan></text>
<text fill="#475569" style="white-space: pre" xml:space="preserve" font-family="Roboto Flex" font-size="80" font-weight="bold" letter-spacing="0em"><tspan x="228.015" y="239.344">G7</tspan></text>
<path opacity="0.8" d="M85.9375 370.885V748.526" stroke="#475569"></path>
<path opacity="0.8" d="M161.562 370.885V748.526" stroke="#475569"></path>
<path opacity="0.8" d="M237.188 370.885V748.526" stroke="#475569"></path>
<path opacity="0.8" d="M312.812 370.885V748.526" stroke="#475569"></path>
<path opacity="0.8" d="M388.438 370.885V748.526" stroke="#475569"></path>
<path opacity="0.8" d="M464.062 370.885V748.526" stroke="#475569"></path>
<path d="M465.438 367.979H84.5625V373.788H465.438V367.979Z" fill="#475569"></path>
<path opacity="0.6" d="M85.9375 446.41H464.062" stroke="#475569"></path>
<path opacity="0.6" d="M85.9375 521.939H464.062" stroke="#475569"></path>
<path opacity="0.6" d="M85.9375 597.467H464.062" stroke="#475569"></path>
<path opacity="0.6" d="M85.9375 672.996H464.062" stroke="#475569"></path>
<path opacity="0.6" d="M85.9375 748.523H464.062" stroke="#475569"></path>
<path d="M313.495 357.66C327.924 357.66 339.62 345.305 339.62 330.064C339.62 314.822 327.924 302.467 313.495 302.467C299.067 302.467 287.37 314.822 287.37 330.064C287.37 345.305 299.067 357.66 313.495 357.66Z" fill="#475569"></path>
<text fill="white" style="white-space: pre" xml:space="preserve" font-family="Roboto Flex" font-size="30" font-weight="bold" letter-spacing="0em"><tspan x="303.533" y="340.27">G</tspan></text>
<path d="M162.198 512.41C176.626 512.41 188.323 500.055 188.323 484.814C188.323 469.572 176.626 457.217 162.198 457.217C147.769 457.217 136.073 469.572 136.073 484.814C136.073 500.055 147.769 512.41 162.198 512.41Z" fill="#E42E41"></path>
<text fill="white" style="white-space: pre" xml:space="preserve" font-family="Roboto Flex" font-size="30" font-weight="bold" letter-spacing="0em"><tspan x="152.822" y="495.02">B</tspan></text>
<path d="M237.371 587.776C251.799 587.776 263.496 575.42 263.496 560.179C263.496 544.938 251.799 532.582 237.371 532.582C222.942 532.582 211.246 544.938 211.246 560.179C211.246 575.42 222.942 587.776 237.371 587.776Z" fill="#33ABE6"></path>
<text fill="white" style="white-space: pre" xml:space="preserve" font-family="Roboto Flex" font-size="30" font-weight="bold" letter-spacing="0em"><tspan x="229.386" y="570.385">F</tspan></text>
<path d="M86.073 587.776C100.501 587.776 112.198 575.42 112.198 560.179C112.198 544.938 100.501 532.582 86.073 532.582C71.6446 532.582 59.948 544.938 59.948 560.179C59.948 575.42 71.6446 587.776 86.073 587.776Z" fill="#475569"></path>
<text fill="white" style="white-space: pre" xml:space="preserve" font-family="Roboto Flex" font-size="30" font-weight="bold" letter-spacing="0em"><tspan x="76.111" y="570.385">G</tspan></text>
<path d="M381.574 322.422L395.324 336.947" stroke="#475569" stroke-width="2"></path>
<path d="M457.699 322.422L471.449 336.947" stroke="#475569" stroke-width="2"></path>
<path d="M395.324 322.422L381.574 336.947" stroke="#475569" stroke-width="2"></path>
<path d="M471.449 322.422L457.699 336.947" stroke="#475569" stroke-width="2"></path>
</g>
<rect x="1" y="1" width="548" height="823" rx="32" stroke="#475569" stroke-width="2"></rect>
<defs>
<clipPath id="clip0_8332_1831">
<rect width="550" height="825" rx="33" fill="white"></rect>
</clipPath>
</defs>
</svg>