<svg width="550" height="825" viewBox="0 0 550 825" fill="none" xmlns="http://www.w3.org/2000/svg">
<g clip-path="url(#clip0_8332_4346)">
<path d="M533.5 0H16.5C7.3873 0 0 7.80349 0 17.4296V807.57C0 817.197 7.3873 825 16.5 825H533.5C542.613 825 550 817.197 550 807.57V17.4296C550 7.80349 542.613 0 533.5 0Z" fill="white"></path>
<path d="M550 0H0V130H550V0Z" fill="#475569"></path>
<text fill="white" style="white-space: pre" xml:space="preserve" font-family="Roboto Flex" font-size="52" font-weight="bold" letter-spacing="0em"><tspan x="50.4629" y="83.2734">CAGED - SOL</tspan></text>
<text fill="#475569" style="white-space: pre" xml:space="preserve" font-family="Roboto Flex" font-size="80" font-weight="bold" letter-spacing="0em"><tspan x="162.172" y="239.344">Gsus2</tspan></text>
<path opacity="0.8" d="M85.9375 370.885V748.526" stroke="#475569"></path>
<path opacity="0.8" d="M161.562 370.885V748.526" stroke="#475569"></path>
<path opacity="0.8" d="M237.188 370.885V748.526" stroke="#475569"></path>
<path opacity="0.8" d="M312.812 370.885V748.526" stroke="#475569"></path>
<path opacity="0.8" d="M388.438 370.885V748.526" stroke="#475569"></path>
<path opacity="0.8" d="M464.062 370.885V748.526" stroke="#475569"></path>
<path d="M465.438 367.978H84.5625V373.787H465.438V367.978Z" fill="#475569"></path>
<path opacity="0.6" d="M85.9375 446.411H464.062" stroke="#475569"></path>
<path opacity="0.6" d="M85.9375 521.939H464.062" stroke="#475569"></path>
<path opacity="0.6" d="M85.9375 597.468H464.062" stroke="#475569"></path>
<path opacity="0.6" d="M85.9375 672.996H464.062" stroke="#475569"></path>
<path opacity="0.6" d="M85.9375 748.524H464.062" stroke="#475569"></path>
<path d="M237.371 357.66C251.799 357.66 263.496 345.305 263.496 330.064C263.496 314.822 251.799 302.467 237.371 302.467C222.942 302.467 211.246 314.822 211.246 330.064C211.246 345.305 222.942 357.66 237.371 357.66Z" fill="#2BE471"></path>
<text fill="white" style="white-space: pre" xml:space="preserve" font-family="Roboto Flex" font-size="30" font-weight="bold" letter-spacing="0em"><tspan x="219.305" y="340.27">P5</tspan></text>
<path d="M388.668 587.776C403.097 587.776 414.793 575.42 414.793 560.179C414.793 544.938 403.097 532.582 388.668 532.582C374.24 532.582 362.543 544.938 362.543 560.179C362.543 575.42 374.24 587.776 388.668 587.776Z" fill="#2BE471"></path>
<text fill="white" style="white-space: pre" xml:space="preserve" font-family="Roboto Flex" font-size="30" font-weight="bold" letter-spacing="0em"><tspan x="370.603" y="570.385">P5</tspan></text>
<path d="M464.793 738.507C479.221 738.507 490.918 726.152 490.918 710.91C490.918 695.669 479.221 683.313 464.793 683.313C450.365 683.313 438.668 695.669 438.668 710.91C438.668 726.152 450.365 738.507 464.793 738.507Z" fill="#E4CE35"></path>
<text fill="white" style="white-space: pre" xml:space="preserve" font-family="Roboto Flex" font-size="30" font-weight="bold" letter-spacing="0em"><tspan x="441.556" y="721.116">M2</tspan></text>
<path d="M312.543 357.66C326.972 357.66 338.668 345.305 338.668 330.064C338.668 314.822 326.972 302.467 312.543 302.467C298.115 302.467 286.418 314.822 286.418 330.064C286.418 345.305 298.115 357.66 312.543 357.66Z" fill="#475569"></path>
<text fill="white" style="white-space: pre" xml:space="preserve" font-family="Roboto Flex" font-size="30" font-weight="bold" letter-spacing="0em"><tspan x="303.344" y="340.27">R</tspan></text>
<path d="M86.0732 587.776C100.502 587.776 112.198 575.42 112.198 560.179C112.198 544.938 100.502 532.582 86.0732 532.582C71.6448 532.582 59.9482 544.938 59.9482 560.179C59.9482 575.42 71.6448 587.776 86.0732 587.776Z" fill="#475569"></path>
<text fill="white" style="white-space: pre" xml:space="preserve" font-family="Roboto Flex" font-size="30" font-weight="bold" letter-spacing="0em"><tspan x="76.8728" y="570.385">R</tspan></text>
<path d="M155.104 322.418L168.854 336.943" stroke="#475569" stroke-width="2"></path>
<path d="M168.854 322.418L155.104 336.943" stroke="#475569" stroke-width="2"></path>
</g>
<rect x="1" y="1" width="548" height="823" rx="32" stroke="#475569" stroke-width="2"></rect>
<defs>
<clipPath id="clip0_8332_4346">
<rect width="550" height="825" rx="33" fill="white"></rect>
</clipPath>
</defs>
</svg>