<svg width="550" height="825" viewBox="0 0 550 825" fill="none" xmlns="http://www.w3.org/2000/svg">
<g clip-path="url(#clip0_8332_369)">
<path d="M533.5 0H16.5C7.3873 0 0 7.80349 0 17.4296V807.57C0 817.197 7.3873 825 16.5 825H533.5C542.613 825 550 817.197 550 807.57V17.4296C550 7.80349 542.613 0 533.5 0Z" fill="white"></path>
<path d="M550 0H0V130H550V0Z" fill="#475569"></path>
<text fill="white" style="white-space: pre" xml:space="preserve" font-family="Roboto Flex" font-size="52" font-weight="bold" letter-spacing="0em"><tspan x="50.2637" y="83.2734">CAGED - RÉ</tspan></text>
<text fill="#475569" style="white-space: pre" xml:space="preserve" font-family="Roboto Flex" font-size="80" font-weight="bold" letter-spacing="0em"><tspan x="162.234" y="239.344">Dmaj7</tspan></text>
<path opacity="0.8" d="M85.9375 370.885V748.526" stroke="#475569"></path>
<path opacity="0.8" d="M161.562 370.885V748.526" stroke="#475569"></path>
<path opacity="0.8" d="M237.188 370.885V748.526" stroke="#475569"></path>
<path opacity="0.8" d="M312.812 370.885V748.526" stroke="#475569"></path>
<path opacity="0.8" d="M388.438 370.885V748.526" stroke="#475569"></path>
<path opacity="0.8" d="M464.062 370.885V748.526" stroke="#475569"></path>
<path d="M465.438 367.979H84.5625V373.788H465.438V367.979Z" fill="#475569"></path>
<path opacity="0.6" d="M85.9375 446.41H464.062" stroke="#475569"></path>
<path opacity="0.6" d="M85.9375 521.939H464.062" stroke="#475569"></path>
<path opacity="0.6" d="M85.9375 597.467H464.062" stroke="#475569"></path>
<path opacity="0.6" d="M85.9375 672.996H464.062" stroke="#475569"></path>
<path opacity="0.6" d="M85.9375 748.523H464.062" stroke="#475569"></path>
<path d="M237.371 357.66C251.799 357.66 263.496 345.305 263.496 330.064C263.496 314.822 251.799 302.467 237.371 302.467C222.942 302.467 211.246 314.822 211.246 330.064C211.246 345.305 222.942 357.66 237.371 357.66Z" fill="#475569"></path>
<text fill="white" style="white-space: pre" xml:space="preserve" font-family="Roboto Flex" font-size="30" font-weight="bold" letter-spacing="0em"><tspan x="226.948" y="340.27">D</tspan></text>
<path d="M464.793 511.407C479.221 511.407 490.918 499.051 490.918 483.81C490.918 468.568 479.221 456.213 464.793 456.213C450.365 456.213 438.668 468.568 438.668 483.81C438.668 499.051 450.365 511.407 464.793 511.407Z" fill="#E42E41"></path>
<text fill="white" style="white-space: pre" xml:space="preserve" font-family="Roboto Flex" font-size="30" font-weight="bold" letter-spacing="0em"><tspan x="445.283" y="494.016">F#</tspan></text>
<path d="M388.668 511.407C403.097 511.407 414.793 499.051 414.793 483.81C414.793 468.568 403.097 456.213 388.668 456.213C374.24 456.213 362.543 468.568 362.543 483.81C362.543 499.051 374.24 511.407 388.668 511.407Z" fill="#33ABE6"></path>
<text fill="white" style="white-space: pre" xml:space="preserve" font-family="Roboto Flex" font-size="30" font-weight="bold" letter-spacing="0em"><tspan x="367.468" y="494.016">C#</tspan></text>
<path d="M312.543 511.407C326.972 511.407 338.668 499.051 338.668 483.81C338.668 468.568 326.972 456.213 312.543 456.213C298.115 456.213 286.418 468.568 286.418 483.81C286.418 499.051 298.115 511.407 312.543 511.407Z" fill="#2BE471"></path>
<text fill="white" style="white-space: pre" xml:space="preserve" font-family="Roboto Flex" font-size="30" font-weight="bold" letter-spacing="0em"><tspan x="302.282" y="494.016">A</tspan></text>
<path d="M79.0625 325.857L92.8125 340.382" stroke="#475569" stroke-width="2"></path>
<path d="M155.104 325.578L168.854 340.103" stroke="#475569" stroke-width="2"></path>
<path d="M92.8125 325.857L79.0625 340.382" stroke="#475569" stroke-width="2"></path>
<path d="M168.854 325.578L155.104 340.103" stroke="#475569" stroke-width="2"></path>
</g>
<rect x="1" y="1" width="548" height="823" rx="32" stroke="#475569" stroke-width="2"></rect>
<defs>
<clipPath id="clip0_8332_369">
<rect width="550" height="825" rx="33" fill="white"></rect>
</clipPath>
</defs>
</svg>