<svg width="550" height="825" viewBox="0 0 550 825" fill="none" xmlns="http://www.w3.org/2000/svg">
<g clip-path="url(#clip0_8332_2957)">
<path d="M533.5 0H16.5C7.3873 0 0 7.80349 0 17.4296V807.57C0 817.197 7.3873 825 16.5 825H533.5C542.613 825 550 817.197 550 807.57V17.4296C550 7.80349 542.613 0 533.5 0Z" fill="white"></path>
<text fill="#475569" style="white-space: pre" xml:space="preserve" font-family="Roboto Flex" font-size="80" font-weight="bold" letter-spacing="0em"><tspan x="228.327" y="239.344">C7</tspan></text>
<path opacity="0.8" d="M85.9375 367.828V745.469" stroke="#475569"></path>
<path opacity="0.8" d="M161.562 367.828V745.469" stroke="#475569"></path>
<path opacity="0.8" d="M237.188 367.828V745.469" stroke="#475569"></path>
<path opacity="0.8" d="M312.812 367.828V745.469" stroke="#475569"></path>
<path opacity="0.8" d="M388.438 367.828V745.469" stroke="#475569"></path>
<path opacity="0.8" d="M464.062 367.828V745.469" stroke="#475569"></path>
<path d="M465.438 364.922H84.5625V370.732H465.438V364.922Z" fill="#475569"></path>
<path opacity="0.6" d="M85.9375 443.354H464.062" stroke="#475569"></path>
<path opacity="0.6" d="M85.9375 518.883H464.062" stroke="#475569"></path>
<path opacity="0.6" d="M85.9375 594.411H464.062" stroke="#475569"></path>
<path opacity="0.6" d="M85.9375 669.939H464.062" stroke="#475569"></path>
<path opacity="0.6" d="M85.9375 745.468H464.062" stroke="#475569"></path>
<path d="M237.371 509.355C251.8 509.355 263.496 496.999 263.496 481.758C263.496 466.517 251.8 454.161 237.371 454.161C222.943 454.161 211.246 466.517 211.246 481.758C211.246 496.999 222.943 509.355 237.371 509.355Z" fill="#E42E41"></path>
<text fill="white" style="white-space: pre" xml:space="preserve" font-family="Roboto Flex" font-size="30" font-weight="bold" letter-spacing="0em"><tspan x="228.976" y="491.964">E</tspan></text>
<path d="M388.668 433.99C403.096 433.99 414.793 421.634 414.793 406.393C414.793 391.151 403.096 378.796 388.668 378.796C374.24 378.796 362.543 391.151 362.543 406.393C362.543 421.634 374.24 433.99 388.668 433.99Z" fill="#475569"></path>
<text fill="white" style="white-space: pre" xml:space="preserve" font-family="Roboto Flex" font-size="30" font-weight="bold" letter-spacing="0em"><tspan x="377.47" y="417.604">C</tspan></text>
<path d="M313.495 584.72C327.924 584.72 339.62 572.365 339.62 557.123C339.62 541.882 327.924 529.526 313.495 529.526C299.067 529.526 287.37 541.882 287.37 557.123C287.37 572.365 299.067 584.72 313.495 584.72Z" fill="#33ABE6"></path>
<text fill="white" style="white-space: pre" xml:space="preserve" font-family="Roboto Flex" font-size="30" font-weight="bold" letter-spacing="0em"><tspan x="295.197" y="567.329">Bb</tspan></text>
<path d="M162.197 584.72C176.626 584.72 188.322 572.365 188.322 557.123C188.322 541.882 176.626 529.526 162.197 529.526C147.769 529.526 136.072 541.882 136.072 557.123C136.072 572.365 147.769 584.72 162.197 584.72Z" fill="#475569"></path>
<text fill="white" style="white-space: pre" xml:space="preserve" font-family="Roboto Flex" font-size="30" font-weight="bold" letter-spacing="0em"><tspan x="151.95" y="567.329">C</tspan></text>
<path d="M79.0625 322.802L92.8125 337.326" stroke="#475569" stroke-width="2"></path>
<path d="M457.699 322.523L471.449 337.048" stroke="#475569" stroke-width="2"></path>
<path d="M92.8125 322.802L79.0625 337.326" stroke="#475569" stroke-width="2"></path>
<path d="M471.449 322.523L457.699 337.048" stroke="#475569" stroke-width="2"></path>
<path d="M550 0H0V130H550V0Z" fill="#475569"></path>
<text fill="white" style="white-space: pre" xml:space="preserve" font-family="Roboto Flex" font-size="52" font-weight="bold" letter-spacing="0em"><tspan x="50.2188" y="83.2734">CAGED - DO</tspan></text>
</g>
<rect x="1" y="1" width="548" height="823" rx="32" stroke="#475569" stroke-width="2"></rect>
<defs>
<clipPath id="clip0_8332_2957">
<rect width="550" height="825" rx="33" fill="white"></rect>
</clipPath>
</defs>
</svg>