<svg width="550" height="825" viewBox="0 0 550 825" fill="none" xmlns="http://www.w3.org/2000/svg">
<g clip-path="url(#clip0_8332_4830)">
<path d="M533.5 0H16.5C7.3873 0 0 7.80349 0 17.4296V807.57C0 817.197 7.3873 825 16.5 825H533.5C542.613 825 550 817.197 550 807.57V17.4296C550 7.80349 542.613 0 533.5 0Z" fill="white"></path>
<path d="M550 0H0V130H550V0Z" fill="#475569"></path>
<text fill="white" style="white-space: pre" xml:space="preserve" font-family="Roboto Flex" font-size="52" font-weight="bold" letter-spacing="0em"><tspan x="50.1543" y="83.2734">CAGED - LA</tspan></text>
<text fill="#475569" style="white-space: pre" xml:space="preserve" font-family="Roboto Flex" font-size="80" font-weight="bold" letter-spacing="0em"><tspan x="165.36" y="239.344">Asus2</tspan></text>
<path opacity="0.8" d="M85.9375 370.885V748.526" stroke="#475569"></path>
<path opacity="0.8" d="M161.562 370.885V748.526" stroke="#475569"></path>
<path opacity="0.8" d="M237.188 370.885V748.526" stroke="#475569"></path>
<path opacity="0.8" d="M312.812 370.885V748.526" stroke="#475569"></path>
<path opacity="0.8" d="M388.438 370.885V748.526" stroke="#475569"></path>
<path opacity="0.8" d="M464.062 370.885V748.526" stroke="#475569"></path>
<path d="M465.438 367.978H84.5625V373.787H465.438V367.978Z" fill="#475569"></path>
<path opacity="0.6" d="M85.9375 446.411H464.062" stroke="#475569"></path>
<path opacity="0.6" d="M85.9375 521.939H464.062" stroke="#475569"></path>
<path opacity="0.6" d="M85.9375 597.468H464.062" stroke="#475569"></path>
<path opacity="0.6" d="M85.9375 672.996H464.062" stroke="#475569"></path>
<path opacity="0.6" d="M85.9375 748.524H464.062" stroke="#475569"></path>
<path d="M237.371 511.406C251.799 511.406 263.496 499.05 263.496 483.809C263.496 468.567 251.799 456.212 237.371 456.212C222.942 456.212 211.246 468.567 211.246 483.809C211.246 499.05 222.942 511.406 237.371 511.406Z" fill="#2BE471"></path>
<text fill="white" style="white-space: pre" xml:space="preserve" font-family="Roboto Flex" font-size="30" font-weight="bold" letter-spacing="0em"><tspan x="219.305" y="494.015">P5</tspan></text>
<path d="M464.793 357.66C479.221 357.66 490.918 345.305 490.918 330.064C490.918 314.822 479.221 302.467 464.793 302.467C450.365 302.467 438.668 314.822 438.668 330.064C438.668 345.305 450.365 357.66 464.793 357.66Z" fill="#2BE471"></path>
<text fill="white" style="white-space: pre" xml:space="preserve" font-family="Roboto Flex" font-size="30" font-weight="bold" letter-spacing="0em"><tspan x="446.727" y="340.27">P5</tspan></text>
<path d="M388.668 357.66C403.097 357.66 414.793 345.305 414.793 330.064C414.793 314.822 403.097 302.467 388.668 302.467C374.24 302.467 362.543 314.822 362.543 330.064C362.543 345.305 374.24 357.66 388.668 357.66Z" fill="#E4CE35"></path>
<text fill="white" style="white-space: pre" xml:space="preserve" font-family="Roboto Flex" font-size="30" font-weight="bold" letter-spacing="0em"><tspan x="365.431" y="340.27">M2</tspan></text>
<path d="M312.543 511.406C326.972 511.406 338.668 499.05 338.668 483.809C338.668 468.567 326.972 456.212 312.543 456.212C298.115 456.212 286.418 468.567 286.418 483.809C286.418 499.05 298.115 511.406 312.543 511.406Z" fill="#475569"></path>
<text fill="white" style="white-space: pre" xml:space="preserve" font-family="Roboto Flex" font-size="30" font-weight="bold" letter-spacing="0em"><tspan x="303.344" y="494.015">R</tspan></text>
<path d="M162.198 357.66C176.626 357.66 188.323 345.305 188.323 330.064C188.323 314.822 176.626 302.467 162.198 302.467C147.769 302.467 136.073 314.822 136.073 330.064C136.073 345.305 147.769 357.66 162.198 357.66Z" fill="#475569"></path>
<text fill="white" style="white-space: pre" xml:space="preserve" font-family="Roboto Flex" font-size="30" font-weight="bold" letter-spacing="0em"><tspan x="152.997" y="340.27">R</tspan></text>
<path d="M79.0625 325.857L92.8125 340.382" stroke="#475569" stroke-width="2"></path>
<path d="M92.8125 325.857L79.0625 340.382" stroke="#475569" stroke-width="2"></path>
</g>
<rect x="1" y="1" width="548" height="823" rx="32" stroke="#475569" stroke-width="2"></rect>
<defs>
<clipPath id="clip0_8332_4830">
<rect width="550" height="825" rx="33" fill="white"></rect>
</clipPath>
</defs>
</svg>