<svg width="550" height="825" viewBox="0 0 550 825" fill="none" xmlns="http://www.w3.org/2000/svg">
<g clip-path="url(#clip0_8332_5394)">
<path d="M533.5 0H16.5C7.3873 0 0 7.80349 0 17.4296V807.57C0 817.197 7.3873 825 16.5 825H533.5C542.613 825 550 817.197 550 807.57V17.4296C550 7.80349 542.613 0 533.5 0Z" fill="white"></path>
<path d="M550 0H0V130H550V0Z" fill="#475569"></path>
<text fill="white" style="white-space: pre" xml:space="preserve" font-family="Roboto Flex" font-size="52" font-weight="bold" letter-spacing="0em"><tspan x="50.2188" y="83.2734">CAGED - DO</tspan></text>
<text fill="#475569" style="white-space: pre" xml:space="preserve" font-family="Roboto Flex" font-size="80" font-weight="bold" letter-spacing="0em"><tspan x="162.485" y="239.344">Csus4</tspan></text>
<path opacity="0.8" d="M85.9375 370.885V748.526" stroke="#475569"></path>
<path opacity="0.8" d="M161.563 370.885V748.526" stroke="#475569"></path>
<path opacity="0.8" d="M237.188 370.885V748.526" stroke="#475569"></path>
<path opacity="0.8" d="M312.812 370.885V748.526" stroke="#475569"></path>
<path opacity="0.8" d="M388.437 370.885V748.526" stroke="#475569"></path>
<path opacity="0.8" d="M464.062 370.885V748.526" stroke="#475569"></path>
<path d="M465.437 367.979H84.5624V373.788H465.437V367.979Z" fill="#475569"></path>
<path opacity="0.6" d="M85.9375 446.41H464.062" stroke="#475569"></path>
<path opacity="0.6" d="M85.9375 521.939H464.062" stroke="#475569"></path>
<path opacity="0.6" d="M85.9375 597.467H464.062" stroke="#475569"></path>
<path opacity="0.6" d="M85.9375 672.996H464.062" stroke="#475569"></path>
<path opacity="0.6" d="M85.9375 748.523H464.062" stroke="#475569"></path>
<path d="M237.371 587.776C251.799 587.776 263.496 575.42 263.496 560.179C263.496 544.938 251.799 532.582 237.371 532.582C222.942 532.582 211.246 544.938 211.246 560.179C211.246 575.42 222.942 587.776 237.371 587.776Z" fill="#2EDCE4"></path>
<text fill="white" style="white-space: pre" xml:space="preserve" font-family="Roboto Flex" font-size="30" font-weight="bold" letter-spacing="0em"><tspan x="219.305" y="570.385">P4</tspan></text>
<path d="M388.668 436.041C403.097 436.041 414.793 423.686 414.793 408.444C414.793 393.203 403.097 380.848 388.668 380.848C374.24 380.848 362.543 393.203 362.543 408.444C362.543 423.686 374.24 436.041 388.668 436.041Z" fill="#475569"></path>
<text fill="white" style="white-space: pre" xml:space="preserve" font-family="Roboto Flex" font-size="30" font-weight="bold" letter-spacing="0em"><tspan x="379.468" y="418.65">R</tspan></text>
<path d="M313.495 357.66C327.924 357.66 339.62 345.305 339.62 330.064C339.62 314.822 327.924 302.467 313.495 302.467C299.067 302.467 287.37 314.822 287.37 330.064C287.37 345.305 299.067 357.66 313.495 357.66Z" fill="#2BE471"></path>
<text fill="white" style="white-space: pre" xml:space="preserve" font-family="Roboto Flex" font-size="30" font-weight="bold" letter-spacing="0em"><tspan x="295.429" y="340.27">P5</tspan></text>
<path d="M162.198 587.776C176.626 587.776 188.323 575.42 188.323 560.179C188.323 544.938 176.626 532.582 162.198 532.582C147.769 532.582 136.073 544.938 136.073 560.179C136.073 575.42 147.769 587.776 162.198 587.776Z" fill="#475569"></path>
<text fill="white" style="white-space: pre" xml:space="preserve" font-family="Roboto Flex" font-size="30" font-weight="bold" letter-spacing="0em"><tspan x="152.997" y="570.385">R</tspan></text>
<path d="M79.0624 325.857L92.8124 340.382" stroke="#475569" stroke-width="2"></path>
<path d="M457.699 325.578L471.449 340.103" stroke="#475569" stroke-width="2"></path>
<path d="M92.8124 325.857L79.0624 340.382" stroke="#475569" stroke-width="2"></path>
<path d="M471.449 325.578L457.699 340.103" stroke="#475569" stroke-width="2"></path>
</g>
<rect x="1" y="1" width="548" height="823" rx="32" stroke="#475569" stroke-width="2"></rect>
<defs>
<clipPath id="clip0_8332_5394">
<rect width="550" height="825" rx="33" fill="white"></rect>
</clipPath>
</defs>
</svg>