<svg width="554" height="829" viewBox="0 0 554 829" fill="none" xmlns="http://www.w3.org/2000/svg">
<g clip-path="url(#clip0_6488_201)">
<path d="M534.162 2H19.8378C9.98627 2 2 9.91497 2 19.6786V809.321C2 819.085 9.98627 827 19.8378 827H534.162C544.014 827 552 819.085 552 809.321V19.6786C552 9.91497 544.014 2 534.162 2Z" fill="white"></path>
<path d="M552 2H2V105.125H552V2Z" fill="#10B981"></path>
<text fill="white" style="white-space: pre" xml:space="preserve" font-family="Roboto Flex" font-size="52" font-weight="bold" letter-spacing="0em"><tspan x="35" y="72.2734">CONTRAINTE</tspan></text>
<text fill="#1A1A1A" style="white-space: pre" xml:space="preserve" font-family="Calistoga" font-size="36" letter-spacing="0em"><tspan x="35" y="159.1">Honore l’erreur</tspan></text>
<path d="M85 181H35V187H85V181Z" fill="#10B981"></path>
<path d="M277.001 539.723C350.887 539.723 410.784 480.361 410.784 407.134C410.784 333.907 350.887 274.544 277.001 274.544C203.114 274.544 143.217 333.907 143.217 407.134C143.217 480.361 203.114 539.723 277.001 539.723Z" fill="url(#paint0_radial_6488_201)"></path>
<path d="M427.711 327.068H121.993C117.578 327.068 114 327.78 114 328.659V365.263C114 366.142 117.578 366.854 121.993 366.854H427.711C432.125 366.854 435.703 366.142 435.703 365.263V328.659C435.703 327.78 432.125 327.068 427.711 327.068Z" fill="#10B981" fill-opacity="0.1"></path>
<path d="M303.609 452H250.391C249.623 452 249 452.429 249 452.96V475.04C249 475.57 249.623 476 250.391 476H303.609C304.377 476 305 475.57 305 475.04V452.96C305 452.429 304.377 452 303.609 452Z" fill="#10B981" fill-opacity="0.1"></path>
<path d="M161.744 358.556C167.615 358.556 172.373 353.798 172.373 347.928C172.373 342.057 167.615 337.299 161.744 337.299C155.874 337.299 151.116 342.057 151.116 347.928C151.116 353.798 155.874 358.556 161.744 358.556Z" fill="#10B981" fill-opacity="0.4"></path>
<path d="M133.723 358.556C139.593 358.556 144.351 353.798 144.351 347.928C144.351 342.057 139.593 337.299 133.723 337.299C127.853 337.299 123.094 342.057 123.094 347.928C123.094 353.798 127.853 358.556 133.723 358.556Z" fill="#10B981"></path>
<path d="M189.766 358.556C195.636 358.556 200.395 353.798 200.395 347.928C200.395 342.057 195.636 337.299 189.766 337.299C183.896 337.299 179.137 342.057 179.137 347.928C179.137 353.798 183.896 358.556 189.766 358.556Z" fill="#10B981" fill-opacity="0.4"></path>
<path d="M428 327.078H122C117.582 327.078 114 329.907 114 333.398V478.758C114 482.248 117.582 485.078 122 485.078H428C432.418 485.078 436 482.248 436 478.758V333.398C436 329.907 432.418 327.078 428 327.078Z" fill="#10B981" fill-opacity="0.1"></path>
<path d="M490.82 260H63.1801C57.0055 260 52 264.62 52 270.32V507.68C52 513.38 57.0055 518 63.1801 518H490.82C496.995 518 502 513.38 502 507.68V270.32C502 264.62 496.995 260 490.82 260Z" fill="#10B981" fill-opacity="0.1"></path>
<path d="M464.103 329.131C463.982 328.997 463.81 328.916 463.63 328.908C463.341 328.895 463.166 329.046 462.946 329.236C462.825 329.34 462.66 329.488 462.441 329.688C462.04 330.054 461.509 330.549 460.996 331.027C460.25 331.722 459.241 332.662 458.989 332.864C458.942 332.89 458.897 332.921 458.856 332.958C458.58 333.207 458.558 333.634 458.807 333.91C458.847 333.954 458.892 333.992 458.941 334.024C459.042 334.089 459.159 334.127 459.281 334.133C459.57 334.145 459.744 333.995 459.965 333.804C460.085 333.7 460.25 333.553 460.469 333.352C460.87 332.986 461.401 332.492 461.914 332.013C462.661 331.318 463.669 330.379 463.921 330.176C463.968 330.151 464.013 330.12 464.054 330.082C464.33 329.833 464.352 329.407 464.103 329.131ZM459.728 332.932C459.723 332.928 459.717 332.923 459.712 332.919C459.717 332.923 459.723 332.928 459.728 332.932ZM459.673 332.892C459.655 332.881 459.637 332.87 459.619 332.86C459.637 332.87 459.655 332.88 459.673 332.892ZM459.755 332.955C459.76 332.959 459.764 332.963 459.769 332.967C459.764 332.963 459.76 332.959 459.755 332.955ZM463.102 330.033C463.158 330.095 463.223 330.144 463.293 330.181C463.225 330.146 463.16 330.098 463.102 330.033Z" fill="#10B981"></path>
<path d="M419.071 300.661C419.111 300.705 419.156 300.743 419.205 300.775C419.306 300.84 419.424 300.879 419.546 300.884C419.855 300.897 420.001 300.763 420.484 300.321C420.742 300.085 421.081 299.767 421.408 299.46C421.86 299.037 422.467 298.467 422.651 298.316C422.694 298.292 422.736 298.262 422.774 298.227C423.051 297.978 423.072 297.552 422.823 297.275C422.702 297.141 422.53 297.06 422.349 297.053C422.04 297.04 421.894 297.173 421.41 297.616C421.153 297.852 420.814 298.169 420.486 298.477C420.035 298.9 419.427 299.47 419.244 299.621C419.2 299.645 419.159 299.674 419.12 299.709C418.844 299.959 418.822 300.385 419.071 300.661ZM422.065 298.35C421.979 298.315 421.895 298.259 421.822 298.178C421.892 298.256 421.975 298.313 422.065 298.35ZM420.072 299.758C420.062 299.747 420.052 299.737 420.042 299.727C420.052 299.737 420.062 299.747 420.072 299.758ZM420.006 299.695C419.984 299.676 419.962 299.659 419.938 299.644C419.903 299.621 419.866 299.602 419.827 299.586C419.89 299.611 419.95 299.647 420.006 299.695ZM420.037 299.723C420.028 299.714 420.019 299.705 420.009 299.697C420.018 299.705 420.028 299.714 420.037 299.723Z" fill="#10B981"></path>
<path d="M461.108 330.181C461.203 330.074 461.274 329.991 461.324 329.926C461.704 329.428 461.402 329.047 461.337 328.976C461.215 328.84 461.046 328.76 460.862 328.752C460.574 328.739 460.375 328.888 460.047 329.152C459.942 329.237 459.819 329.34 459.674 329.464C459.677 329.218 459.539 329.046 459.498 329C459.375 328.864 459.206 328.784 459.023 328.776C458.736 328.763 458.541 328.909 458.22 329.168C458.018 329.331 457.745 329.564 457.383 329.88C456.734 330.447 455.824 331.263 454.602 332.375C452.337 334.435 449.309 337.229 446.381 339.93C446.357 339.952 446.333 339.975 446.309 339.997C448.469 337.737 450.612 335.492 452.245 333.762C453.269 332.676 454.017 331.873 454.532 331.306C454.819 330.99 455.028 330.754 455.171 330.583C455.255 330.483 455.314 330.408 455.358 330.347C455.706 329.86 455.414 329.492 455.351 329.423C455.229 329.287 455.06 329.207 454.876 329.199C454.58 329.185 454.369 329.355 454.103 329.57C453.918 329.719 453.667 329.933 453.335 330.223C452.74 330.742 451.908 331.489 450.79 332.506C448.717 334.391 445.948 336.947 443.269 339.419C443.109 339.567 442.948 339.716 442.785 339.866C444.6 337.925 446.391 336.007 447.763 334.52C448.643 333.567 449.286 332.861 449.728 332.364C449.976 332.085 450.156 331.877 450.279 331.726C450.353 331.637 450.405 331.569 450.444 331.514C450.777 331.037 450.488 330.674 450.427 330.606C450.304 330.47 450.136 330.39 449.952 330.382C449.661 330.369 449.456 330.533 449.22 330.724C449.057 330.855 448.838 331.041 448.548 331.294C448.427 331.4 448.294 331.517 448.149 331.645C448.411 331.376 448.635 331.143 448.824 330.943C449.089 330.664 449.282 330.456 449.414 330.305C449.492 330.215 449.548 330.148 449.59 330.092C449.95 329.611 449.652 329.236 449.588 329.166C449.466 329.03 449.297 328.951 449.114 328.942C448.821 328.929 448.624 329.088 448.374 329.29C448.207 329.424 447.981 329.616 447.684 329.875C447.151 330.341 446.406 331.009 445.406 331.919C444.418 332.818 443.253 333.887 442.018 335.025C444.091 332.874 446.111 330.776 447.682 329.125C448.762 327.99 449.551 327.151 450.094 326.559C450.396 326.229 450.616 325.981 450.767 325.803C450.854 325.701 450.918 325.621 450.963 325.558C451.317 325.068 451.023 324.698 450.96 324.628C450.837 324.492 450.669 324.413 450.485 324.404C450.2 324.391 450.009 324.534 449.696 324.787C449.502 324.943 449.239 325.167 448.892 325.47C448.268 326.015 447.395 326.798 446.222 327.865C444.937 329.035 443.395 330.45 441.769 331.948C444.243 329.43 446.665 326.961 448.538 325.03C449.793 323.736 450.71 322.778 451.34 322.103C451.691 321.727 451.947 321.447 452.121 321.244C452.22 321.13 452.293 321.04 452.344 320.971C452.703 320.482 452.441 320.122 452.352 320.024C452.229 319.887 452.06 319.808 451.876 319.799C451.585 319.786 451.378 319.941 451.038 320.217C450.816 320.396 450.515 320.652 450.117 321C449.401 321.626 448.398 322.526 447.051 323.751C444.552 326.024 441.211 329.106 437.98 332.086C437.836 332.22 437.69 332.354 437.544 332.489C437.689 332.34 437.832 332.191 437.976 332.044C441.071 328.853 444.272 325.553 446.619 323.101C447.885 321.779 448.809 320.801 449.444 320.111C449.798 319.727 450.055 319.44 450.231 319.234C450.331 319.117 450.404 319.026 450.455 318.955C450.81 318.466 450.549 318.108 450.461 318.01C450.338 317.874 450.169 317.794 449.985 317.785C449.693 317.772 449.495 317.921 449.14 318.207C448.916 318.389 448.61 318.649 448.205 319.003C447.478 319.639 446.459 320.553 445.089 321.799C442.55 324.108 439.155 327.24 435.871 330.269C435.125 330.957 434.355 331.668 433.579 332.384C435.555 330.301 437.51 328.238 439.004 326.643C439.953 325.63 440.647 324.881 441.123 324.352C441.39 324.056 441.584 323.835 441.717 323.676C441.795 323.582 441.851 323.511 441.892 323.452C442.234 322.971 441.943 322.605 441.881 322.536C441.758 322.4 441.59 322.321 441.406 322.312C441.112 322.299 440.91 322.462 440.655 322.668C440.482 322.807 440.247 323.006 439.938 323.276C439.385 323.76 438.61 324.455 437.57 325.401C436.789 326.111 435.903 326.923 434.959 327.791C436.636 326.071 438.228 324.435 439.521 323.094C440.622 321.952 441.425 321.107 441.978 320.511C442.287 320.179 442.511 319.93 442.665 319.751C442.753 319.648 442.818 319.567 442.864 319.504C443.223 319.013 442.928 318.64 442.865 318.571C442.742 318.434 442.573 318.355 442.389 318.347C442.327 318.344 442.269 318.348 442.214 318.36C442.294 318.279 442.37 318.202 442.443 318.129C442.786 317.781 443.037 317.52 443.208 317.332C443.305 317.225 443.378 317.141 443.428 317.076C443.816 316.578 443.512 316.193 443.447 316.121C443.324 315.985 443.155 315.906 442.971 315.897C442.929 315.895 442.888 315.897 442.849 315.902C442.87 315.881 442.891 315.86 442.912 315.839C443.28 315.469 443.548 315.192 443.731 314.993C443.835 314.879 443.911 314.791 443.965 314.722C444.36 314.219 444.054 313.832 443.989 313.76C443.866 313.624 443.697 313.544 443.513 313.536C443.221 313.522 443.023 313.67 442.671 313.956C442.447 314.136 442.143 314.395 441.741 314.747C441.017 315.379 440.004 316.289 438.642 317.527C436.45 319.52 433.618 322.129 430.774 324.753C430.822 324.704 430.87 324.655 430.918 324.606C434.408 321.067 438.017 317.408 440.663 314.688C442.09 313.222 443.131 312.138 443.848 311.374C444.246 310.949 444.535 310.631 444.733 310.403C444.844 310.275 444.925 310.175 444.982 310.098C445.35 309.599 445.087 309.237 444.998 309.138C444.875 309.001 444.705 308.921 444.521 308.913C444.509 308.912 444.498 308.912 444.487 308.912C444.765 308.633 444.981 308.411 445.142 308.239C445.263 308.108 445.353 308.007 445.415 307.929C445.817 307.424 445.545 307.049 445.452 306.946C445.329 306.809 445.159 306.729 444.975 306.721C444.69 306.708 444.488 306.846 444.063 307.19C443.801 307.403 443.443 307.707 442.97 308.121C442.117 308.867 440.921 309.941 439.313 311.402C439.287 311.427 439.26 311.451 439.233 311.476C439.876 310.849 440.489 310.251 441.063 309.689C442.72 308.066 443.93 306.866 444.762 306.019C445.223 305.55 445.559 305.199 445.788 304.946C445.916 304.806 446.01 304.697 446.074 304.613C446.471 304.102 446.201 303.73 446.11 303.628C445.986 303.491 445.817 303.411 445.632 303.403C445.342 303.389 445.142 303.527 444.687 303.896C444.406 304.124 444.023 304.45 443.515 304.894C442.599 305.695 441.315 306.848 439.589 308.417C436.657 311.083 432.82 314.619 429.015 318.127C429.114 318.029 429.212 317.932 429.311 317.834C433.68 313.517 438.197 309.052 441.51 305.735C443.295 303.947 444.599 302.624 445.495 301.692C445.992 301.175 446.353 300.789 446.599 300.512C446.736 300.358 446.835 300.239 446.904 300.149C447.287 299.643 447.057 299.287 446.94 299.157C446.816 299.02 446.646 298.94 446.462 298.932C446.166 298.918 445.956 299.065 445.472 299.457C445.166 299.705 444.748 300.061 444.194 300.545C443.195 301.42 441.793 302.678 439.909 304.391C436.413 307.57 431.737 311.881 427.216 316.05C425.881 317.281 424.49 318.563 423.098 319.845C423.855 319.084 424.605 318.329 425.336 317.595C429.296 313.613 433.391 309.496 436.393 306.437C438.012 304.788 439.193 303.568 440.006 302.708C440.457 302.231 440.785 301.874 441.008 301.618C441.133 301.476 441.224 301.365 441.287 301.281C441.656 300.784 441.427 300.432 441.312 300.304C441.189 300.167 441.019 300.087 440.834 300.079C440.544 300.066 440.345 300.204 439.89 300.572C439.609 300.8 439.225 301.126 438.717 301.57C437.802 302.371 436.518 303.523 434.793 305.092C431.592 308.003 427.311 311.951 423.171 315.768C420.552 318.183 417.701 320.812 415.093 323.204C415.646 322.607 416.194 322.014 416.725 321.44C419.156 318.813 421.669 316.097 423.512 314.079C424.506 312.99 425.232 312.185 425.731 311.617C426.01 311.3 426.213 311.063 426.351 310.892C426.433 310.792 426.49 310.716 426.533 310.655C426.859 310.182 426.604 309.835 426.518 309.74C426.396 309.604 426.227 309.524 426.043 309.516C425.747 309.502 425.538 309.671 425.273 309.885C425.09 310.033 424.841 310.244 424.513 310.531C423.999 310.98 423.306 311.6 422.401 312.421C422.522 312.291 422.62 312.184 422.697 312.097C422.775 312.008 422.831 311.942 422.872 311.887C423.234 311.406 422.935 311.03 422.872 310.96C422.749 310.824 422.58 310.745 422.397 310.736C422.105 310.723 421.899 310.889 421.66 311.081C421.495 311.214 421.272 311.403 420.978 311.66C420.527 312.054 419.922 312.596 419.136 313.309C419.381 313.059 419.617 312.817 419.844 312.585C420.844 311.562 421.574 310.806 422.076 310.272C422.357 309.974 422.561 309.75 422.701 309.589C422.784 309.494 422.842 309.423 422.886 309.364C423.245 308.879 422.948 308.505 422.885 308.435C422.762 308.299 422.593 308.22 422.41 308.212C422.115 308.198 421.91 308.363 421.651 308.573C421.535 308.666 421.392 308.786 421.219 308.934C421.539 308.609 421.813 308.329 422.042 308.09C422.345 307.776 422.566 307.54 422.718 307.37C422.806 307.271 422.869 307.196 422.915 307.135C423.287 306.645 422.987 306.266 422.923 306.195C422.8 306.06 422.631 305.98 422.447 305.972C422.15 305.958 421.937 306.13 421.668 306.347C421.479 306.499 421.224 306.717 420.886 307.012C420.28 307.541 419.431 308.302 418.292 309.339C416.819 310.679 415 312.351 413.108 314.095C415.429 311.707 417.71 309.356 419.466 307.525C420.619 306.323 421.462 305.433 422.041 304.806C422.364 304.456 422.599 304.195 422.759 304.006C422.851 303.899 422.919 303.814 422.967 303.749C423.317 303.266 423.056 302.91 422.968 302.812C422.845 302.676 422.676 302.596 422.493 302.588C422.206 302.575 422.009 302.722 421.687 302.982C421.483 303.146 421.207 303.381 420.842 303.7C420.187 304.273 419.269 305.096 418.036 306.218C415.945 308.119 413.212 310.639 410.5 313.142C410.552 313.087 410.605 313.033 410.657 312.979C413.698 309.838 416.843 306.591 419.149 304.178C420.393 302.876 421.301 301.914 421.925 301.235C422.273 300.857 422.526 300.575 422.699 300.372C422.797 300.256 422.869 300.166 422.919 300.097C423.273 299.608 423.012 299.251 422.924 299.153C422.801 299.017 422.632 298.938 422.449 298.929C422.152 298.916 421.942 299.085 421.677 299.299C421.492 299.448 421.243 299.661 420.913 299.949C420.321 300.466 419.492 301.209 418.38 302.221C416.317 304.097 413.561 306.641 410.895 309.101C409.267 310.604 407.496 312.238 405.864 313.737C405.872 313.727 405.88 313.717 405.888 313.707C407.152 312.17 408.46 310.581 409.418 309.401C409.936 308.763 410.314 308.29 410.574 307.957C410.721 307.769 410.829 307.628 410.903 307.525C410.949 307.46 410.983 307.411 411.009 307.368C411.282 306.921 411.011 306.582 410.954 306.519C410.833 306.385 410.661 306.304 410.481 306.296C410.176 306.283 409.993 306.442 409.592 306.791C409.583 306.798 409.574 306.806 409.564 306.814C409.891 306.434 410.138 306.141 410.317 305.925C410.437 305.78 410.526 305.671 410.587 305.59C410.627 305.538 410.657 305.497 410.68 305.461C410.903 305.118 410.793 304.786 410.631 304.607C410.511 304.473 410.338 304.392 410.158 304.384C409.858 304.371 409.68 304.525 409.327 304.831C409.224 304.921 409.099 305.032 408.951 305.164C409.015 305.085 409.078 305.009 409.138 304.935C409.489 304.502 409.746 304.182 409.923 303.956C410.024 303.826 410.098 303.728 410.15 303.657C410.184 303.608 410.21 303.57 410.23 303.537C410.437 303.2 410.326 302.877 410.169 302.703C410.048 302.569 409.876 302.488 409.696 302.48C409.401 302.467 409.223 302.621 408.929 302.876C408.764 303.019 408.535 303.224 408.23 303.502C407.994 303.717 407.725 303.965 407.439 304.229C407.889 303.579 408.321 302.955 408.665 302.452C408.934 302.059 409.13 301.768 409.265 301.563C409.343 301.444 409.4 301.355 409.44 301.289C409.467 301.244 409.488 301.208 409.504 301.176C409.668 300.853 409.565 300.559 409.413 300.391C409.292 300.257 409.12 300.176 408.94 300.168C408.621 300.155 408.49 300.274 407.762 300.939C407.508 301.171 407.2 301.456 406.879 301.755C407.268 300.99 407.668 300.202 407.962 299.615C408.124 299.292 408.242 299.052 408.323 298.883C408.37 298.784 408.405 298.709 408.429 298.654C408.599 298.263 408.474 298.003 408.34 297.854C408.218 297.72 408.045 297.639 407.864 297.632C407.56 297.619 407.398 297.768 407.043 298.094C406.852 298.269 406.603 298.504 406.362 298.731C406.047 299.029 405.624 299.428 405.478 299.551C405.436 299.574 405.396 299.603 405.359 299.636C405.082 299.886 405.06 300.312 405.31 300.588C405.431 300.723 405.604 300.804 405.785 300.811C405.806 300.812 405.827 300.812 405.846 300.811C405.784 300.935 405.721 301.057 405.661 301.177C405.266 301.952 404.859 302.754 404.56 303.35C404.398 303.674 404.28 303.913 404.199 304.083C404.152 304.181 404.117 304.256 404.093 304.311C403.923 304.702 404.048 304.962 404.183 305.111C404.304 305.245 404.476 305.326 404.656 305.334C404.835 305.342 404.955 305.307 405.154 305.158C404.694 305.822 404.252 306.461 403.901 306.974C403.632 307.367 403.436 307.658 403.3 307.864C403.223 307.982 403.165 308.071 403.126 308.137C403.098 308.183 403.078 308.218 403.062 308.25C402.898 308.573 403.001 308.867 403.153 309.035C403.273 309.169 403.445 309.25 403.626 309.258C403.718 309.262 403.799 309.25 403.875 309.223C403.677 309.465 403.491 309.694 403.321 309.903C402.97 310.336 402.713 310.656 402.536 310.882C402.435 311.012 402.361 311.11 402.309 311.181C402.274 311.23 402.249 311.268 402.228 311.301C402.022 311.638 402.132 311.961 402.289 312.135C402.41 312.269 402.582 312.35 402.762 312.358C402.843 312.362 402.915 312.353 402.984 312.333C402.867 312.468 402.755 312.598 402.649 312.721C402.229 313.209 401.922 313.571 401.711 313.826C401.59 313.971 401.502 314.081 401.441 314.161C401.401 314.213 401.371 314.254 401.348 314.29C401.125 314.634 401.235 314.965 401.397 315.144C401.517 315.278 401.69 315.359 401.87 315.367C402.175 315.381 402.358 315.222 402.759 314.873C402.991 314.671 403.314 314.381 403.746 313.988C403.954 313.799 404.179 313.592 404.417 313.374C403.291 314.742 402.167 316.11 401.317 317.158C400.799 317.796 400.421 318.268 400.161 318.601C400.014 318.789 399.906 318.931 399.832 319.034C399.786 319.098 399.752 319.148 399.726 319.19C399.453 319.637 399.724 319.976 399.781 320.039C399.904 320.175 400.073 320.255 400.256 320.263C400.553 320.277 400.763 320.107 401.028 319.893C401.212 319.744 401.462 319.532 401.792 319.244C402.384 318.727 403.212 317.983 404.325 316.971C405.825 315.606 407.693 313.888 409.626 312.106C406.604 315.227 403.486 318.446 401.196 320.843C399.953 322.144 399.044 323.107 398.42 323.785C398.073 324.163 397.82 324.445 397.647 324.649C397.549 324.764 397.477 324.854 397.426 324.924C397.073 325.412 397.333 325.769 397.422 325.867C397.545 326.003 397.713 326.083 397.897 326.091C398.184 326.104 398.381 325.958 398.703 325.697C398.906 325.533 399.183 325.298 399.548 324.979C400.203 324.406 401.121 323.583 402.354 322.461C404.287 320.703 406.771 318.415 409.278 316.102C406.897 318.552 404.547 320.975 402.747 322.851C401.593 324.054 400.751 324.944 400.171 325.571C399.849 325.921 399.614 326.182 399.453 326.371C399.361 326.478 399.293 326.562 399.246 326.628C398.895 327.11 399.156 327.467 399.244 327.565C399.367 327.701 399.536 327.781 399.719 327.789C400.017 327.803 400.23 327.631 400.499 327.413C400.687 327.261 400.943 327.044 401.281 326.749C401.505 326.553 401.763 326.325 402.056 326.063C401.85 326.273 401.667 326.462 401.505 326.63C401.202 326.945 400.981 327.18 400.83 327.35C400.741 327.449 400.678 327.524 400.632 327.585C400.26 328.075 400.561 328.454 400.625 328.525C400.747 328.661 400.916 328.74 401.1 328.749C401.395 328.762 401.6 328.597 401.859 328.387C402.036 328.244 402.277 328.04 402.594 327.763C403.162 327.267 403.958 326.553 405.026 325.581C405.328 325.306 405.646 325.017 405.976 324.715C405.72 324.975 405.474 325.227 405.239 325.468C404.239 326.491 403.509 327.248 403.006 327.782C402.726 328.08 402.521 328.303 402.381 328.464C402.299 328.559 402.24 328.631 402.196 328.689C401.837 329.174 402.134 329.548 402.197 329.618C402.32 329.754 402.488 329.834 402.672 329.842C402.964 329.855 403.17 329.689 403.409 329.497C403.574 329.364 403.797 329.174 404.091 328.918C404.102 328.908 404.113 328.898 404.124 328.889C403.926 329.097 403.777 329.259 403.668 329.383C403.59 329.471 403.534 329.538 403.493 329.593C403.131 330.074 403.43 330.449 403.494 330.519C403.616 330.655 403.785 330.735 403.969 330.743C404.265 330.757 404.474 330.588 404.739 330.374C404.922 330.226 405.171 330.015 405.499 329.728C406.088 329.214 406.912 328.475 408.019 327.468C410.07 325.602 412.812 323.071 415.463 320.624C415.866 320.252 416.278 319.873 416.694 319.489C416.37 319.838 416.05 320.185 415.736 320.524C413.306 323.151 410.792 325.867 408.95 327.885C407.956 328.973 407.23 329.778 406.731 330.346C406.453 330.663 406.25 330.9 406.111 331.071C406.03 331.171 405.972 331.246 405.929 331.308C405.603 331.78 405.858 332.128 405.944 332.223C406.067 332.36 406.237 332.439 406.421 332.448C406.712 332.461 406.911 332.323 407.366 331.955C407.647 331.727 408.031 331.401 408.538 330.957C409.454 330.156 410.738 329.004 412.463 327.435C415.664 324.524 419.945 320.576 424.085 316.759C424.798 316.101 425.529 315.427 426.268 314.746C425.63 315.388 424.998 316.023 424.38 316.644C420.42 320.626 416.326 324.743 413.323 327.802C411.705 329.451 410.524 330.67 409.711 331.53C409.26 332.007 408.932 332.364 408.709 332.62C408.584 332.762 408.493 332.873 408.43 332.957C408.061 333.454 408.289 333.806 408.405 333.934C408.528 334.071 408.698 334.151 408.883 334.159C409.179 334.173 409.389 334.026 409.873 333.634C410.179 333.386 410.597 333.03 411.15 332.546C412.15 331.671 413.552 330.414 415.436 328.7C418.932 325.521 423.607 321.21 428.129 317.041C428.458 316.738 428.791 316.431 429.126 316.122C428.87 316.375 428.616 316.626 428.363 316.876C423.994 321.193 419.477 325.658 416.164 328.975C414.379 330.764 413.075 332.086 412.179 333.018C411.682 333.535 411.321 333.921 411.075 334.199C410.938 334.352 410.838 334.471 410.77 334.562C410.386 335.068 410.617 335.424 410.734 335.553C410.857 335.69 411.027 335.77 411.212 335.778C411.502 335.792 411.701 335.654 412.157 335.285C412.438 335.057 412.821 334.731 413.329 334.287C414.245 333.486 415.529 332.334 417.254 330.764C417.94 330.14 418.676 329.469 419.449 328.761C418.757 329.435 418.1 330.077 417.486 330.678C415.829 332.3 414.619 333.501 413.787 334.347C413.325 334.817 412.99 335.168 412.761 335.42C412.633 335.561 412.539 335.67 412.475 335.753C412.078 336.265 412.347 336.637 412.439 336.739C412.563 336.875 412.732 336.955 412.916 336.964C413.097 336.972 413.244 336.92 413.434 336.793C413.283 337.164 413.479 337.43 413.555 337.514C413.678 337.651 413.847 337.73 414.031 337.739C414.329 337.753 414.541 337.593 414.921 337.285C415.171 337.083 415.511 336.793 415.962 336.399C416.773 335.689 417.911 334.669 419.44 333.278C422.275 330.7 426.066 327.203 429.733 323.821C429.974 323.599 430.218 323.374 430.463 323.148C430.294 323.319 430.126 323.49 429.958 323.66C426.468 327.199 422.859 330.859 420.213 333.578C418.786 335.044 417.744 336.129 417.028 336.893C416.63 337.318 416.34 337.636 416.143 337.864C416.032 337.992 415.95 338.092 415.894 338.169C415.525 338.668 415.789 339.03 415.878 339.13C416.001 339.266 416.17 339.345 416.354 339.354C416.586 339.364 416.759 339.273 416.997 339.091C416.723 339.541 416.989 339.877 417.05 339.944C417.173 340.08 417.342 340.16 417.526 340.168C417.795 340.181 417.988 340.051 418.28 339.816C418.278 339.82 418.275 339.823 418.272 339.827C417.885 340.325 418.189 340.709 418.254 340.781C418.377 340.918 418.546 340.997 418.729 341.006C419.015 341.019 419.207 340.875 419.522 340.621C419.718 340.462 419.984 340.236 420.335 339.929C420.966 339.378 421.849 338.586 423.035 337.507C424.545 336.134 426.404 334.424 428.341 332.639C426.571 334.454 424.883 336.188 423.524 337.597C422.423 338.739 421.619 339.584 421.066 340.18C420.758 340.513 420.534 340.761 420.38 340.94C420.292 341.043 420.227 341.124 420.181 341.187C419.822 341.678 420.117 342.051 420.18 342.121C420.303 342.257 420.471 342.336 420.655 342.344C420.949 342.358 421.151 342.195 421.406 341.989C421.579 341.849 421.814 341.65 422.123 341.381C422.676 340.897 423.451 340.202 424.491 339.256C426.036 337.851 427.996 336.045 429.995 334.201C428.192 336.101 426.438 337.953 425.07 339.413C424.121 340.426 423.428 341.176 422.951 341.705C422.685 342 422.491 342.221 422.358 342.381C422.28 342.475 422.224 342.546 422.182 342.604C421.841 343.086 422.132 343.452 422.194 343.52C422.317 343.657 422.486 343.736 422.67 343.745C422.962 343.758 423.16 343.609 423.514 343.323C423.739 343.141 424.045 342.881 424.45 342.528C425.177 341.892 426.196 340.977 427.566 339.731C430.106 337.421 433.501 334.289 436.785 331.26C437.014 331.048 437.246 330.834 437.48 330.619C437.321 330.782 437.164 330.944 437.008 331.106C433.912 334.297 430.711 337.597 428.364 340.049C427.099 341.371 426.175 342.349 425.539 343.038C425.185 343.422 424.928 343.709 424.752 343.915C424.653 344.032 424.579 344.124 424.528 344.194C424.173 344.684 424.434 345.041 424.523 345.139C424.645 345.276 424.814 345.355 424.998 345.364C425.289 345.377 425.496 345.222 425.837 344.946C426.058 344.767 426.359 344.511 426.757 344.163C427.473 343.538 428.476 342.638 429.824 341.412C431.979 339.452 434.76 336.89 437.557 334.31C434.961 336.953 432.395 339.567 430.432 341.591C429.177 342.885 428.26 343.842 427.63 344.517C427.279 344.893 427.024 345.174 426.849 345.376C426.75 345.491 426.677 345.58 426.626 345.65C426.267 346.138 426.529 346.498 426.618 346.597C426.741 346.733 426.91 346.812 427.094 346.821C427.378 346.834 427.569 346.691 427.883 346.438C428.076 346.282 428.339 346.058 428.687 345.755C429.31 345.21 430.183 344.427 431.356 343.36C433.189 341.692 435.543 339.525 437.92 337.332C435.745 339.587 433.607 341.807 431.962 343.536C430.882 344.671 430.093 345.51 429.55 346.102C429.248 346.432 429.027 346.679 428.877 346.857C428.79 346.96 428.726 347.04 428.681 347.103C428.327 347.593 428.621 347.963 428.684 348.033C428.806 348.168 428.975 348.248 429.158 348.256C429.451 348.27 429.648 348.11 429.899 347.909C430.065 347.775 430.291 347.583 430.588 347.323C430.827 347.114 431.109 346.864 431.438 346.57C431.202 346.814 430.998 347.027 430.822 347.211C430.558 347.49 430.365 347.699 430.233 347.849C430.154 347.939 430.099 348.006 430.057 348.062C429.697 348.543 429.995 348.918 430.058 348.988C430.181 349.124 430.349 349.203 430.533 349.212C430.824 349.225 431.029 349.06 431.265 348.87C431.428 348.739 431.647 348.552 431.937 348.299C432.455 347.847 433.181 347.196 434.154 346.31C435.66 344.941 437.588 343.164 439.539 341.363C437.794 343.23 436.085 345.061 434.764 346.492C433.884 347.446 433.241 348.151 432.798 348.649C432.551 348.928 432.371 349.136 432.247 349.287C432.174 349.376 432.122 349.444 432.083 349.499C431.749 349.976 432.038 350.339 432.1 350.407C432.222 350.543 432.391 350.623 432.575 350.631C432.872 350.645 433.082 350.475 433.348 350.26C433.534 350.111 433.785 349.897 434.116 349.607C434.711 349.088 435.544 348.341 436.662 347.324C438.443 345.703 440.739 343.588 443.05 341.456C440.947 343.656 438.874 345.828 437.284 347.513C436.26 348.599 435.512 349.402 434.997 349.968C434.71 350.285 434.501 350.521 434.358 350.692C434.274 350.792 434.215 350.867 434.171 350.928C433.823 351.415 434.115 351.783 434.178 351.852C434.3 351.988 434.469 352.068 434.653 352.076C434.795 352.082 434.915 352.05 435.038 351.984C434.978 352.291 435.154 352.511 435.202 352.564C435.324 352.7 435.493 352.779 435.677 352.788C435.965 352.801 436.164 352.652 436.492 352.388C436.699 352.22 436.982 351.979 437.355 351.653C437.77 351.291 438.286 350.831 438.918 350.262C438.395 350.787 437.969 351.22 437.629 351.571C437.292 351.918 437.047 352.178 436.88 352.365C436.784 352.472 436.713 352.556 436.663 352.621C436.284 353.118 436.585 353.499 436.65 353.571C436.689 353.615 436.735 353.653 436.784 353.685C436.884 353.75 437.002 353.788 437.123 353.793C437.418 353.806 437.594 353.654 437.886 353.401C438.05 353.259 438.275 353.057 438.576 352.783C439.129 352.278 439.865 351.595 440.576 350.935C441.697 349.894 443.081 348.609 443.394 348.362C443.444 348.336 443.492 348.303 443.536 348.264C443.772 348.05 443.823 347.708 443.676 347.44C445.532 345.611 447.585 343.598 449.466 341.754C452.406 338.872 455.445 335.892 457.674 333.677C458.877 332.483 459.755 331.599 460.359 330.976C460.695 330.628 460.94 330.369 461.108 330.181ZM406.176 299.571C406.128 299.539 406.076 299.515 406.022 299.497C406.113 299.526 406.201 299.576 406.279 299.653C406.247 299.622 406.213 299.594 406.176 299.571Z" fill="#10B981"></path>
<path d="M456.025 289.094C455.987 289.128 455.947 289.156 455.904 289.181C455.748 289.311 455.275 289.757 454.923 290.088C454.658 290.337 454.385 290.595 454.176 290.786C453.788 291.141 453.628 291.289 453.322 291.276C453.141 291.269 452.969 291.188 452.848 291.054C452.567 290.743 452.694 290.409 452.77 290.21C452.804 290.119 452.855 289.989 452.925 289.815C452.94 289.775 452.957 289.734 452.974 289.692C452.918 289.744 452.864 289.793 452.813 289.84C452.325 290.287 452.177 290.422 451.868 290.409C451.746 290.404 451.628 290.366 451.527 290.301C451.478 290.269 451.433 290.23 451.394 290.187C451.288 290.07 451.133 289.817 451.281 289.443C451.294 289.411 451.314 289.365 451.339 289.307C451.374 289.228 451.421 289.122 451.485 288.985C451.245 289.189 451.103 289.262 450.876 289.252C450.695 289.245 450.523 289.164 450.402 289.03C450.152 288.754 450.174 288.328 450.45 288.078C450.489 288.044 450.53 288.014 450.573 287.99C450.748 287.845 451.313 287.315 451.733 286.921C452.04 286.632 452.358 286.334 452.6 286.112C453.052 285.699 453.204 285.56 453.512 285.572C453.693 285.58 453.865 285.66 453.986 285.795C454.092 285.912 454.247 286.165 454.098 286.539C454.085 286.571 454.066 286.617 454.041 286.674C454.007 286.752 453.96 286.856 453.898 286.99C454.288 286.636 454.435 286.526 454.716 286.538C454.897 286.545 455.069 286.626 455.19 286.76C455.471 287.071 455.344 287.404 455.268 287.603C455.233 287.695 455.183 287.825 455.113 287.999C455.096 288.041 455.079 288.084 455.061 288.13C455.251 287.976 455.391 287.911 455.599 287.919C455.78 287.926 455.952 288.007 456.074 288.142C456.323 288.418 456.301 288.844 456.025 289.094Z" fill="#10B981"></path>
<path d="M429.393 288.724C429.365 288.761 429.333 288.794 429.299 288.823C429.18 288.967 428.828 289.449 428.566 289.808C428.369 290.077 428.166 290.355 428.01 290.563C427.72 290.949 427.6 291.109 427.322 291.149C427.157 291.173 426.988 291.129 426.856 291.028C426.551 290.795 426.609 290.473 426.644 290.281C426.659 290.192 426.683 290.066 426.717 289.898C426.724 289.859 426.732 289.82 426.74 289.779C426.699 289.835 426.659 289.888 426.621 289.939C426.255 290.425 426.144 290.572 425.863 290.612C425.753 290.628 425.64 290.613 425.538 290.571C425.488 290.551 425.441 290.524 425.398 290.491C425.283 290.403 425.1 290.201 425.171 289.838C425.177 289.807 425.187 289.763 425.2 289.706C425.218 289.629 425.243 289.526 425.277 289.391C425.096 289.616 424.979 289.706 424.773 289.735C424.609 289.759 424.44 289.715 424.308 289.614C424.036 289.407 423.984 289.019 424.191 288.747C424.22 288.71 424.252 288.676 424.287 288.647C424.421 288.487 424.841 287.913 425.153 287.487C425.382 287.175 425.619 286.852 425.8 286.611C426.138 286.162 426.252 286.011 426.532 285.97C426.696 285.946 426.865 285.99 426.997 286.091C427.113 286.179 427.295 286.381 427.224 286.744C427.218 286.774 427.208 286.819 427.195 286.875C427.177 286.952 427.152 287.053 427.119 287.185C427.411 286.799 427.526 286.675 427.781 286.638C427.945 286.614 428.115 286.659 428.246 286.759C428.552 286.992 428.494 287.314 428.459 287.507C428.443 287.596 428.419 287.721 428.386 287.89C428.377 287.931 428.369 287.973 428.36 288.017C428.506 287.846 428.622 287.764 428.811 287.736C428.975 287.712 429.144 287.756 429.277 287.857C429.548 288.064 429.6 288.453 429.393 288.724Z" fill="#10B981"></path>
<path d="M408.918 283.925C408.913 283.971 408.902 284.015 408.886 284.057C408.856 284.242 408.793 284.835 408.746 285.277C408.711 285.608 408.675 285.951 408.644 286.21C408.586 286.689 408.563 286.887 408.343 287.061C408.212 287.164 408.044 287.212 407.879 287.19C407.498 287.142 407.386 286.834 407.32 286.65C407.289 286.565 407.247 286.445 407.191 286.282C407.179 286.245 407.165 286.207 407.152 286.167C407.144 286.237 407.136 286.303 407.129 286.366C407.056 286.97 407.034 287.152 406.811 287.328C406.723 287.397 406.618 287.441 406.509 287.456C406.456 287.463 406.402 287.464 406.348 287.457C406.204 287.439 405.945 287.355 405.824 287.006C405.814 286.976 405.8 286.932 405.783 286.877C405.76 286.801 405.73 286.699 405.692 286.566C405.647 286.851 405.592 286.987 405.428 287.116C405.298 287.219 405.13 287.266 404.965 287.245C404.626 287.202 404.386 286.892 404.429 286.553C404.435 286.506 404.446 286.461 404.462 286.418C404.497 286.213 404.573 285.506 404.63 284.981C404.671 284.595 404.714 284.198 404.75 283.898C404.817 283.34 404.84 283.152 405.061 282.977C405.192 282.874 405.36 282.827 405.525 282.848C405.669 282.866 405.928 282.95 406.048 283.299C406.058 283.329 406.073 283.372 406.089 283.427C406.112 283.502 406.142 283.602 406.179 283.733C406.238 283.253 406.275 283.088 406.478 282.928C406.608 282.825 406.776 282.779 406.941 282.799C407.322 282.848 407.433 283.156 407.5 283.34C407.531 283.425 407.573 283.545 407.628 283.708C407.642 283.747 407.656 283.788 407.67 283.831C407.71 283.61 407.769 283.48 407.919 283.362C408.049 283.259 408.218 283.212 408.383 283.233C408.722 283.276 408.961 283.586 408.918 283.925Z" fill="#10B981"></path>
<path d="M459.138 307.749C459.116 307.79 459.099 307.832 459.086 307.875C459.004 308.043 458.708 308.561 458.488 308.947C458.322 309.236 458.151 309.536 458.025 309.764C457.792 310.186 457.695 310.361 457.772 310.63C457.817 310.79 457.927 310.927 458.073 311.006C458.41 311.19 458.681 311.005 458.842 310.895C458.917 310.844 459.021 310.771 459.162 310.671C459.193 310.649 459.227 310.625 459.26 310.601C459.226 310.662 459.194 310.72 459.163 310.776C458.869 311.308 458.781 311.469 458.859 311.742C458.889 311.85 458.949 311.947 459.029 312.023C459.068 312.059 459.112 312.092 459.159 312.118C459.287 312.187 459.545 312.271 459.848 312.058C459.873 312.039 459.91 312.012 459.956 311.977C460.019 311.929 460.104 311.864 460.212 311.778C460.082 312.035 460.047 312.178 460.104 312.378C460.15 312.538 460.259 312.675 460.405 312.754C460.705 312.917 461.081 312.806 461.244 312.506C461.267 312.464 461.284 312.421 461.296 312.377C461.388 312.19 461.739 311.572 462.001 311.112C462.192 310.776 462.39 310.428 462.536 310.164C462.808 309.672 462.899 309.506 462.822 309.234C462.776 309.075 462.667 308.938 462.521 308.859C462.393 308.79 462.134 308.706 461.833 308.919C461.807 308.937 461.77 308.964 461.724 308.999C461.662 309.047 461.579 309.111 461.473 309.194C461.705 308.77 461.772 308.615 461.701 308.367C461.655 308.208 461.546 308.071 461.401 307.992C461.063 307.808 460.792 307.993 460.631 308.104C460.556 308.155 460.452 308.228 460.311 308.327C460.278 308.351 460.242 308.376 460.206 308.402C460.302 308.2 460.33 308.06 460.278 307.877C460.233 307.717 460.123 307.58 459.977 307.501C459.677 307.338 459.301 307.449 459.138 307.749Z" fill="#10B981"></path>
<path d="M474.01 324.534C473.97 324.558 473.934 324.586 473.902 324.617C473.746 324.721 473.23 325.021 472.847 325.244C472.558 325.412 472.26 325.585 472.037 325.719C471.623 325.967 471.452 326.07 471.383 326.342C471.342 326.503 471.368 326.676 471.455 326.818C471.655 327.146 471.981 327.122 472.176 327.107C472.266 327.1 472.394 327.09 472.565 327.074C472.604 327.07 472.644 327.067 472.685 327.063C472.625 327.098 472.568 327.133 472.514 327.165C471.992 327.478 471.835 327.573 471.765 327.848C471.738 327.957 471.741 328.071 471.772 328.176C471.787 328.228 471.809 328.278 471.837 328.324C471.913 328.448 472.095 328.65 472.463 328.617C472.495 328.614 472.54 328.609 472.597 328.602C472.676 328.592 472.782 328.578 472.919 328.558C472.677 328.716 472.575 328.822 472.524 329.024C472.483 329.185 472.51 329.358 472.596 329.499C472.774 329.791 473.155 329.883 473.446 329.705C473.487 329.681 473.523 329.652 473.556 329.62C473.729 329.504 474.343 329.146 474.8 328.879C475.134 328.684 475.48 328.482 475.738 328.327C476.22 328.038 476.382 327.94 476.452 327.666C476.492 327.505 476.467 327.333 476.38 327.191C476.304 327.067 476.122 326.864 475.754 326.898C475.723 326.901 475.678 326.905 475.62 326.913C475.543 326.922 475.439 326.936 475.305 326.955C475.719 326.705 475.854 326.604 475.917 326.354C475.958 326.193 475.932 326.02 475.845 325.879C475.645 325.551 475.319 325.575 475.124 325.59C475.033 325.596 474.906 325.607 474.735 325.623C474.694 325.627 474.651 325.631 474.606 325.635C474.791 325.508 474.885 325.401 474.932 325.216C474.973 325.055 474.947 324.882 474.861 324.74C474.683 324.448 474.302 324.356 474.01 324.534Z" fill="#10B981"></path>
<path d="M467.194 328.515C466.751 328.039 466.122 327.627 465.468 327.537C461.071 326.934 456.562 327.173 452.257 328.258C452.18 328.277 452.103 328.298 452.025 328.318C453.072 324.854 454.12 321.389 455.167 317.925C455.296 317.498 455.425 317.071 455.554 316.643C455.73 316.062 455.197 315.569 454.768 315.252C454.346 314.94 453.515 314.441 452.97 314.73C451.665 315.423 450.361 316.116 449.056 316.809C447.684 317.537 446.312 318.266 444.94 318.994C446.276 313.496 447.471 307.964 448.521 302.404C448.883 300.487 449.228 298.567 449.556 296.644C449.641 296.145 448.881 295.538 448.534 295.324C448.299 295.178 448.049 295.051 447.786 294.962C447.567 294.887 447.138 294.796 446.911 294.931C440.433 298.795 434.037 302.796 427.73 306.934C426.834 307.522 425.94 308.112 425.047 308.706C425.077 305.872 425.184 303.038 425.127 300.204C425.104 299.09 425.057 297.976 424.966 296.866C424.913 296.22 424.272 295.729 423.755 295.438C423.303 295.184 422.603 294.874 422.163 295.289C418.934 298.342 415.833 301.533 412.855 304.832C412.743 304.247 412.615 303.665 412.467 303.088C411.904 300.89 411.056 298.79 410.051 296.76C409.393 295.431 408.66 294.142 407.877 292.884C407.546 292.352 406.882 291.881 406.28 291.709C405.876 291.593 405.31 291.5 405.187 292.015C404.087 296.59 403.017 301.172 401.844 305.729C400.672 310.281 399.415 314.819 397.863 319.258C397.843 319.29 397.832 319.325 397.827 319.362C397.823 319.373 397.82 319.384 397.816 319.395C397.032 321.627 396.171 323.836 395.153 325.972C394.866 326.572 395.721 327.219 396.114 327.493C396.47 327.74 396.825 327.987 397.18 328.234C398.148 328.907 399.115 329.579 400.082 330.252C401.521 331.252 402.96 332.253 404.399 333.253C406.146 334.468 407.894 335.683 409.641 336.898C411.555 338.228 413.469 339.559 415.382 340.89C417.314 342.233 419.246 343.576 421.178 344.919C422.98 346.172 424.782 347.424 426.583 348.677C428.107 349.736 429.63 350.795 431.153 351.854C432.254 352.619 433.354 353.385 434.455 354.15C434.921 354.474 435.384 354.803 435.852 355.123C435.927 355.18 436.003 355.232 436.076 355.277C436.437 355.528 437.511 356.068 437.857 355.533C439.685 353.501 441.588 351.535 443.538 349.616C443.576 349.596 443.609 349.569 443.632 349.533C443.637 349.526 443.64 349.519 443.643 349.512C445.239 347.945 446.865 346.409 448.508 344.894C452.51 341.204 456.638 337.642 460.935 334.297C463.022 332.671 465.152 331.095 467.361 329.637C467.795 329.351 467.455 328.796 467.194 328.515ZM432.928 351.254C431.489 350.253 430.05 349.253 428.611 348.253C426.864 347.038 425.116 345.823 423.369 344.608C421.455 343.277 419.541 341.947 417.627 340.616C415.696 339.273 413.764 337.93 411.832 336.586C410.03 335.334 408.228 334.081 406.427 332.829C404.903 331.769 403.38 330.71 401.857 329.651C400.756 328.886 399.656 328.121 398.555 327.356C398.435 327.273 398.316 327.189 398.197 327.105C399.028 325.3 399.759 323.449 400.425 321.575C405.667 324.798 410.867 328.089 416.023 331.446C421.644 335.106 427.212 338.845 432.727 342.662C435.335 344.467 437.93 346.289 440.513 348.13C438.858 349.767 437.232 351.435 435.662 353.155C434.75 352.521 433.839 351.887 432.928 351.254ZM452.99 336.736C448.998 340.112 445.116 343.624 441.376 347.28C436.315 343.671 431.205 340.129 426.05 336.655C420.48 332.902 414.857 329.228 409.184 325.633C406.411 323.876 403.625 322.138 400.828 320.419C401.416 318.693 401.955 316.951 402.475 315.208C403.876 310.505 405.077 305.743 406.232 300.975C406.624 299.359 407.009 297.742 407.395 296.125C407.424 296.182 407.453 296.239 407.482 296.296C407.484 296.3 407.485 296.303 407.487 296.306C407.49 296.313 407.494 296.322 407.5 296.333C407.524 296.384 407.549 296.434 407.573 296.485C407.708 296.766 407.84 297.048 407.967 297.333C408.191 297.83 408.403 298.333 408.601 298.841C408.977 299.804 409.305 300.785 409.577 301.783C409.708 302.262 409.825 302.744 409.93 303.23C409.978 303.453 410.023 303.676 410.065 303.9C410.088 304.019 410.108 304.138 410.13 304.256C410.131 304.259 410.135 304.285 410.139 304.308C410.146 304.351 410.162 304.447 410.164 304.459C410.331 305.511 410.436 306.57 410.494 307.633C410.529 308.274 411.201 308.777 411.705 309.061C412.116 309.292 412.907 309.66 413.297 309.21C416.051 306.025 418.928 302.945 421.91 299.973C422.035 299.849 422.159 299.727 422.284 299.603C422.317 302.302 422.218 305.006 422.189 307.702C422.178 308.734 422.176 309.766 422.203 310.798C422.218 311.346 422.8 311.856 423.225 312.119C423.461 312.265 423.71 312.392 423.973 312.481C424.176 312.55 424.636 312.654 424.848 312.511C431.108 308.297 437.456 304.216 443.891 300.273C444.606 299.835 445.323 299.399 446.041 298.964C445.03 304.509 443.877 310.029 442.582 315.515C442.133 317.417 441.667 319.315 441.185 321.209C441.064 321.685 441.89 322.334 442.206 322.53C442.617 322.784 443.341 323.182 443.829 322.922C445.134 322.23 446.438 321.537 447.743 320.844C449.038 320.156 450.333 319.468 451.629 318.78C450.93 321.093 450.23 323.407 449.531 325.72C449.147 326.991 448.763 328.262 448.379 329.533C448.203 330.113 448.736 330.607 449.165 330.924C449.642 331.277 450.355 331.668 450.963 331.446C454.587 330.118 458.435 329.418 462.315 329.388C459.093 331.685 456.008 334.184 452.99 336.736Z" fill="black"></path>
<path d="M454.824 285.545C454.828 285.548 454.832 285.55 454.837 285.553C454.834 285.551 454.832 285.549 454.829 285.547C454.828 285.546 454.826 285.545 454.824 285.545Z" fill="black"></path>
<path d="M452.27 292.236C454.023 293.1 456.621 293.387 457.952 291.62C458.991 290.17 458.438 288.147 457.374 286.88C456.463 285.795 455.24 284.963 453.985 284.328C453.093 283.876 452.084 283.526 451.072 283.55C450.157 283.572 449.189 284.015 448.605 284.723C448.037 285.41 447.802 286.363 447.89 287.241C448.123 289.556 450.346 291.287 452.27 292.236ZM454.867 285.574C454.851 285.56 454.849 285.559 454.861 285.571C454.853 285.565 454.845 285.56 454.836 285.554C454.848 285.564 454.86 285.573 454.872 285.583C454.877 285.587 454.882 285.592 454.887 285.596C454.871 285.584 454.848 285.566 454.816 285.542C454.819 285.543 454.821 285.544 454.823 285.545C454.818 285.542 454.812 285.538 454.807 285.534C454.807 285.534 454.807 285.534 454.808 285.534C454.81 285.536 454.813 285.537 454.816 285.539C454.819 285.541 454.821 285.542 454.824 285.544C454.826 285.545 454.827 285.547 454.829 285.548C454.832 285.549 454.835 285.551 454.838 285.552C454.926 285.606 455.051 285.698 454.867 285.574ZM454.799 285.523C454.794 285.521 454.79 285.519 454.786 285.517C454.765 285.498 454.739 285.475 454.708 285.448C454.737 285.474 454.768 285.499 454.799 285.523ZM452.131 285.541C452.45 285.402 452.776 285.298 453.123 285.263C453.273 285.247 453.423 285.243 453.573 285.248C453.592 285.248 453.76 285.26 453.757 285.258C453.838 285.267 453.92 285.28 454 285.295C454.155 285.323 454.306 285.362 454.457 285.403C454.495 285.415 454.532 285.428 454.569 285.441C454.629 285.463 454.688 285.487 454.748 285.51C454.765 285.518 454.783 285.526 454.8 285.535C454.869 285.592 454.922 285.637 454.819 285.546C454.846 285.567 454.873 285.586 454.891 285.6C454.894 285.602 454.896 285.604 454.899 285.607C454.901 285.609 454.904 285.612 454.907 285.614C454.961 285.671 455.016 285.726 455.07 285.782C455.085 285.8 455.117 285.839 455.143 285.872C455.204 285.947 455.261 286.025 455.316 286.105C455.367 286.177 455.415 286.251 455.461 286.327C455.462 286.332 455.531 286.455 455.528 286.449C455.833 287.038 456.003 287.689 456.005 288.352C455.981 288.948 455.814 289.52 455.464 290.008C455.175 290.392 454.8 290.682 454.372 290.893C453.765 291.16 453.1 291.266 452.438 291.227C452.299 291.219 452.219 291.209 452.044 291.177C451.95 291.16 451.856 291.14 451.764 291.117C451.722 291.107 451.465 291.026 451.6 291.074C451.567 291.062 451.533 291.05 451.499 291.038C451.493 291.031 451.485 291.024 451.478 291.017C451.463 291.001 451.411 290.95 451.379 290.918C451.264 290.793 451.164 290.646 451.069 290.508C451.029 290.45 450.99 290.391 450.953 290.331C450.928 290.292 450.904 290.252 450.88 290.211C450.906 290.255 450.9 290.243 450.862 290.174C450.567 289.59 450.371 288.976 450.365 288.318C450.415 287.122 451.058 286.073 452.131 285.541Z" fill="black"></path>
<path d="M424.965 290.889C424.97 290.891 424.975 290.893 424.98 290.895C424.947 290.862 424.947 290.868 424.965 290.889Z" fill="black"></path>
<path d="M421.857 288.254C422.12 289.099 422.699 289.818 423.344 290.407C424.318 291.295 425.501 292.031 426.766 292.419C428.388 292.917 430.616 292.565 431.444 290.901C432.212 289.252 431.148 287.514 429.919 286.442C428.989 285.63 427.839 284.96 426.66 284.585C425.842 284.324 424.946 284.167 424.094 284.354C423.265 284.535 422.463 285.086 422.061 285.841C421.679 286.556 421.617 287.483 421.857 288.254ZM424.843 290.842C424.819 290.832 424.823 290.834 424.857 290.849C424.866 290.854 424.874 290.858 424.882 290.862C424.886 290.865 424.891 290.867 424.896 290.871C424.905 290.876 424.914 290.881 424.921 290.886C424.884 290.872 424.832 290.838 424.795 290.816C424.813 290.826 424.829 290.834 424.843 290.842ZM428.56 286.152C428.543 286.141 428.528 286.133 428.517 286.126C428.516 286.126 428.516 286.126 428.515 286.125C428.532 286.134 428.547 286.142 428.56 286.152ZM425.673 286.086C426.205 285.857 426.802 285.79 427.376 285.851C427.452 285.859 427.653 285.894 427.778 285.92C427.859 285.937 427.94 285.956 428.02 285.977C428.058 285.986 428.307 286.061 428.118 286C428.2 286.027 428.357 286.059 428.472 286.106C428.484 286.118 428.497 286.13 428.509 286.142C428.494 286.135 428.479 286.129 428.464 286.122C428.48 286.13 428.496 286.138 428.512 286.145C428.515 286.148 428.518 286.151 428.521 286.154C428.55 286.184 428.598 286.239 428.607 286.248C428.653 286.304 428.699 286.361 428.742 286.419C428.821 286.525 428.917 286.669 428.968 286.759C429.233 287.23 429.398 287.823 429.403 288.392C429.389 288.751 429.312 289.095 429.159 289.422C428.866 290.011 428.367 290.441 427.783 290.728C427.225 290.974 426.618 291.093 426.008 291.079C425.699 291.072 425.409 291.017 425.091 290.935C425.081 290.932 425.072 290.93 425.064 290.928C425.056 290.924 425.045 290.919 425.03 290.913C425.013 290.908 424.997 290.901 424.981 290.895C425.002 290.915 425.036 290.95 425.087 291.006C425.07 290.992 425.053 290.977 425.036 290.963C425.042 290.967 425.047 290.971 425.054 290.975C425.018 290.947 424.983 290.91 424.965 290.889C424.959 290.887 424.953 290.884 424.947 290.882C424.925 290.861 424.903 290.839 424.882 290.818C424.852 290.786 424.812 290.742 424.802 290.73C424.758 290.677 424.714 290.623 424.672 290.568C424.585 290.453 424.502 290.333 424.428 290.208C424.336 290.053 424.196 289.733 424.126 289.49C424.048 289.222 424.013 288.95 424.012 288.673C424.059 287.531 424.642 286.597 425.673 286.086Z" fill="black"></path>
<path d="M411.57 285.361C411.494 284.517 410.99 283.781 410.385 283.215C409.401 282.295 408.163 281.524 406.847 281.192C405.962 280.969 405.002 281.009 404.126 281.253C403.331 281.474 402.518 281.879 401.996 282.536C401.518 283.139 401.279 283.933 401.356 284.698C401.437 285.495 401.872 286.23 402.417 286.798C402.926 287.329 403.546 287.757 404.176 288.13C404.642 288.406 405.14 288.648 405.656 288.815C406.515 289.092 407.432 289.207 408.325 289.027C410.038 288.68 411.688 287.223 411.57 285.361ZM403.99 287.323C403.922 287.279 403.856 287.238 403.965 287.309C403.878 287.257 403.799 287.193 403.993 287.324C403.992 287.324 403.991 287.323 403.99 287.323ZM407.133 287.167C406.576 287.416 405.979 287.55 405.368 287.557C405.06 287.56 404.845 287.54 404.553 287.482C404.463 287.464 404.373 287.444 404.285 287.421C404.264 287.415 404.208 287.398 404.176 287.389C404.12 287.313 404.062 287.232 404.041 287.197C403.807 286.8 403.639 286.25 403.632 285.739C403.684 284.543 404.461 283.594 405.505 283.079C406.047 282.836 406.626 282.686 407.218 282.63C407.516 282.602 407.821 282.592 408.12 282.62C408.225 282.63 408.363 282.652 408.481 282.677C408.552 282.691 408.623 282.708 408.694 282.727C408.718 282.733 408.742 282.74 408.766 282.747C408.937 282.962 409.006 283.079 409.101 283.312C409.2 283.553 409.259 283.806 409.282 284.065C409.286 284.126 409.288 284.187 409.288 284.249C409.225 285.546 408.256 286.613 407.133 287.167Z" fill="black"></path>
<path d="M456.465 311.171C457.133 312.177 458.183 312.95 459.222 313.534C460.11 314.032 461.08 314.418 462.108 314.457C462.899 314.487 463.674 314.226 464.298 313.736C465.035 313.157 465.371 312.256 465.357 311.333C465.345 310.535 464.971 309.774 464.514 309.136C463.865 308.229 462.967 307.487 462.027 306.9C460.978 306.246 459.787 305.715 458.525 305.771C457.7 305.808 456.863 306.137 456.315 306.769C455.277 308.033 455.627 309.906 456.465 311.171ZM461.855 307.479C461.853 307.478 461.851 307.476 461.85 307.475C461.843 307.471 461.836 307.465 461.828 307.46C461.837 307.466 461.846 307.472 461.855 307.479ZM459.44 307.605C459.964 307.376 460.546 307.287 461.116 307.337C461.182 307.342 461.389 307.376 461.51 307.402C461.589 307.419 461.667 307.443 461.745 307.461C461.778 307.472 461.811 307.484 461.843 307.496C461.847 307.497 461.851 307.499 461.855 307.5C461.859 307.504 461.864 307.508 461.868 307.511C461.914 307.551 461.911 307.549 461.861 307.502C461.875 307.508 461.888 307.513 461.902 307.518C461.994 307.605 462.089 307.736 462.148 307.8C462.02 307.658 462.161 307.82 462.187 307.853C462.247 307.926 462.305 308.001 462.361 308.078C462.44 308.187 462.535 308.329 462.591 308.423C462.869 308.897 463.061 309.491 463.069 310.068C463.024 311.217 462.411 312.131 461.388 312.641C461.134 312.753 460.871 312.832 460.596 312.87C460.449 312.891 460.3 312.901 460.152 312.902C460.087 312.902 460.022 312.901 459.958 312.898C459.965 312.898 459.826 312.889 459.829 312.89C459.681 312.874 459.533 312.846 459.388 312.813C459.314 312.796 459.242 312.775 459.169 312.756C459.137 312.745 459.106 312.734 459.075 312.723C459.071 312.722 459.034 312.707 458.994 312.691C458.978 312.677 458.962 312.664 458.952 312.653C458.923 312.623 458.906 312.607 458.898 312.599C458.893 312.594 458.888 312.588 458.882 312.58C458.685 312.335 458.519 312.099 458.391 311.835C458.121 311.277 457.975 310.666 457.97 310.046C457.992 309.394 458.18 308.76 458.6 308.249C458.836 307.976 459.119 307.765 459.44 307.605Z" fill="black"></path>
<path d="M477.702 325.828C476.995 324.621 475.757 323.735 474.528 323.118C473.643 322.674 472.588 322.369 471.616 322.704C470.068 323.282 469.386 324.998 469.506 326.557C469.668 328.651 471.351 330.263 473.103 331.206C473.958 331.667 474.886 331.996 475.871 331.871C476.617 331.777 477.285 331.382 477.759 330.804C478.897 329.416 478.547 327.271 477.702 325.828ZM475.045 324.074C475.045 324.074 475.045 324.074 475.044 324.074C475.03 324.063 475.016 324.052 475.002 324.041C474.985 324.025 474.968 324.01 474.951 323.994C474.97 323.992 475.008 324.032 475.045 324.074ZM472.65 330.247C472.509 330.192 472.569 330.199 472.65 330.247V330.247ZM472.968 330.457C473.035 330.506 473.092 330.543 472.968 330.457V330.457ZM474.515 330.103C474.046 330.306 473.526 330.375 473.018 330.325C473.046 330.326 472.875 330.301 472.856 330.298C472.834 330.293 472.812 330.288 472.791 330.283C472.769 330.257 472.724 330.206 472.715 330.194C472.664 330.132 472.616 330.068 472.569 330.003C472.393 329.757 472.288 329.576 472.162 329.293C471.909 328.723 471.782 328.113 471.782 327.49C471.828 326.239 472.406 324.919 473.564 324.331C473.62 324.306 473.676 324.283 473.734 324.261C473.97 324.18 474.214 324.131 474.464 324.12C474.732 324.108 474.857 324.122 475.13 324.189C475.136 324.19 475.142 324.192 475.148 324.193C475.156 324.203 475.165 324.213 475.173 324.223C475.219 324.279 475.264 324.337 475.307 324.396C475.386 324.503 475.468 324.623 475.53 324.733C475.666 324.975 475.782 325.254 475.875 325.523C476.074 326.097 476.178 326.699 476.178 327.306C476.135 328.47 475.586 329.567 474.515 330.103Z" fill="black"></path>
<text fill="#1A1A1A" style="white-space: pre" xml:space="preserve" font-family="Calistoga" font-size="25" letter-spacing="0em"><tspan x="299" y="424.25">Error!</tspan></text>
<text fill="#1A1A1A" style="white-space: pre" xml:space="preserve" font-family="Calistoga" font-size="15" letter-spacing="0em"><tspan x="266" y="469.25">OK</tspan></text>
<text fill="#1A1A1A" style="white-space: pre" xml:space="preserve" font-family="Calistoga" font-size="15" letter-spacing="0em"><tspan x="218" y="353.25">Error message</tspan></text>
<path d="M227.279 387.003C237.106 388.361 245.672 393.345 250.132 402.206C255.362 412.598 254.238 428.255 245.205 436.505C236.079 444.84 222.934 446.37 211.493 442.888C210.672 442.638 209.86 442.361 209.059 442.054C203.634 439.974 198.464 436.766 195.127 432.009C192.07 427.651 190.743 422.242 190.683 416.919C190.533 403.732 199.734 392.336 212.069 388.262C216.844 386.685 222.127 386.291 227.279 387.003Z" fill="#10B981"></path>
<path d="M226.707 440.399C225.416 440.427 224.124 440.401 222.836 440.314C216.227 439.865 209.219 437.777 203.541 434.344C197.188 430.502 194.522 423.535 192.755 416.667C192.375 415.191 191.421 410.112 191.79 408.837C191.043 411.416 190.651 414.127 190.683 416.919C190.743 422.242 192.07 427.65 195.127 432.008C198.464 436.765 203.634 439.973 209.059 442.053C209.86 442.36 210.672 442.638 211.493 442.887C220.951 445.766 236.324 445.913 243.49 437.673C242.14 439.226 235.503 439.525 233.481 439.816C231.238 440.14 228.974 440.351 226.707 440.399Z" fill="#07A16E"></path>
<path d="M207.681 419.995C206.766 416.747 206.702 413.295 207.914 410.112C209.096 407.011 211.45 404.51 214.276 402.827C219.159 399.919 225.714 399.111 230.927 401.638C233.729 402.997 236.003 405.298 237.233 408.173C238.621 411.417 238.696 415.153 237.858 418.548C237.048 421.834 235.373 424.71 232.633 426.745C230.133 428.6 227.067 429.732 223.974 430.037C220.562 430.372 216.981 429.718 213.989 428.016C210.89 426.253 208.694 423.403 207.681 419.995C207.43 419.154 206.111 419.512 206.363 420.359C208.393 427.185 214.691 431.245 221.655 431.479C228.46 431.707 235.6 428.121 238.274 421.651C241.083 414.852 239.994 406.338 233.816 401.783C228.586 397.928 221.261 398.057 215.521 400.641C211.976 402.237 208.846 404.933 207.144 408.47C205.352 412.196 205.254 416.418 206.363 420.359C206.601 421.204 207.92 420.845 207.681 419.995Z" fill="#038359"></path>
<path d="M247.75 405.443C247.897 405.671 248.024 405.91 248.131 406.159C248.108 406.105 248.085 406.05 248.062 405.996C248.194 406.31 248.293 406.637 248.357 406.972C248.388 407.133 248.535 407.301 248.671 407.381C248.818 407.466 249.034 407.503 249.198 407.449C249.363 407.396 249.523 407.293 249.606 407.135C249.696 406.966 249.711 406.798 249.675 406.609C249.55 405.954 249.29 405.314 248.93 404.753C248.834 404.605 248.695 404.487 248.522 404.439C248.358 404.394 248.14 404.415 247.995 404.508C247.849 404.602 247.721 404.742 247.681 404.917C247.641 405.092 247.65 405.288 247.75 405.443Z" fill="white"></path>
<path d="M249.47 409.504C250.349 409.504 250.35 408.138 249.47 408.138C248.591 408.138 248.589 409.504 249.47 409.504Z" fill="white"></path>
<path d="M227.098 387.662C234.366 388.694 241.122 392.242 245.962 397.786C250.668 403.177 253.22 410.246 252.844 417.407C252.549 423.018 250.537 428.596 246.951 432.947C243.918 436.628 239.891 439.405 235.465 441.15C226.55 444.666 216 444.463 207.254 440.517C203.023 438.608 199.157 435.784 196.347 432.061C193.316 428.045 191.667 423.177 191.406 418.167C191.017 410.738 193.693 403.466 198.614 397.912C204.059 391.765 211.813 387.97 220.004 387.423C222.433 387.26 224.868 387.364 227.279 387.686C228.148 387.802 228.14 386.435 227.279 386.32C218.21 385.107 209.039 387.345 201.818 393.019C195.714 397.816 191.381 404.85 190.289 412.576C189.474 418.346 190.365 424.406 193.129 429.563C195.456 433.903 199.061 437.452 203.267 439.975C211.937 445.176 223.016 446.298 232.681 443.534C237.507 442.154 242.067 439.739 245.719 436.271C249.585 432.599 252.246 427.819 253.462 422.636C255.18 415.317 253.972 407.57 250.085 401.133C246.24 394.765 240.065 389.966 233.018 387.635C231.208 387.036 229.348 386.612 227.461 386.344C226.601 386.222 226.229 387.538 227.098 387.662Z" fill="#038359"></path>
<path d="M241.335 409.845C240.466 405.847 238.124 402.42 234.85 400.014C228.999 395.714 220.86 396.001 214.486 398.871C210.658 400.594 207.209 403.621 205.374 407.435C203.339 411.667 203.12 416.407 204.386 420.903C205.517 424.707 207.799 427.896 211.035 430.185C214.091 432.346 217.941 433.404 221.654 433.529C225.421 433.655 229.277 432.674 232.565 430.844C236.083 428.887 238.729 425.911 240.249 422.196C241.834 418.323 242.224 413.935 241.335 409.845ZM221.786 402.332C221.364 402.402 221.6 402.358 221.786 402.332V402.332ZM217.336 403.551C217.451 403.502 217.573 403.456 217.336 403.551V403.551ZM209.11 413.696C209.112 413.664 209.119 413.607 209.126 413.554C209.15 413.402 209.175 413.25 209.203 413.099C209.362 412.26 209.614 411.462 209.89 410.657C209.9 410.626 209.924 410.568 209.946 410.515C210.012 410.371 210.077 410.227 210.147 410.085C210.309 409.755 210.484 409.431 210.671 409.115C210.882 408.759 211.112 408.417 211.348 408.077C211.375 408.038 211.393 408.012 211.412 407.985C211.586 407.767 211.766 407.554 211.953 407.347C212.502 406.736 213.101 406.176 213.736 405.655C213.789 405.612 213.849 405.564 213.867 405.551C214.042 405.424 214.217 405.299 214.396 405.178C214.694 404.975 214.999 404.781 215.31 404.597C215.937 404.223 216.586 403.905 217.244 403.591C217.263 403.582 217.291 403.57 217.321 403.557C217.449 403.506 217.577 403.454 217.706 403.405C218.083 403.262 218.464 403.131 218.849 403.011C219.515 402.803 220.192 402.631 220.875 402.493C221.185 402.431 221.496 402.381 221.807 402.328C221.838 402.324 221.865 402.321 221.887 402.319C222.142 402.294 222.396 402.267 222.652 402.248C223.306 402.201 223.963 402.187 224.618 402.207C224.98 402.219 225.342 402.241 225.703 402.273C225.847 402.287 225.991 402.304 226.135 402.318C226.164 402.321 226.186 402.323 226.208 402.325C226.248 402.334 226.298 402.345 226.371 402.359C227.04 402.495 227.702 402.63 228.356 402.829C228.698 402.933 229.031 403.06 229.368 403.176C229.393 403.184 229.428 403.198 229.463 403.212C229.606 403.276 229.75 403.339 229.891 403.408C230.329 403.62 230.75 403.862 231.163 404.117C224.224 409.984 217.502 416.105 211.018 422.471C210.835 422.178 210.655 421.882 210.494 421.576C210.403 421.404 210.315 421.229 210.232 421.053C210.2 420.985 209.928 420.28 210.128 420.835C209.962 420.375 209.796 419.92 209.656 419.45C209.431 418.65 209.244 417.837 209.126 417.013C209.123 416.981 209.121 416.951 209.117 416.907C209.1 416.699 209.08 416.491 209.067 416.282C209.039 415.829 209.028 415.374 209.037 414.919C209.046 414.509 209.083 414.104 209.11 413.696ZM236.269 415.848C236.258 415.959 236.246 416.07 236.234 416.181C236.227 416.197 236.161 416.673 236.156 416.705C236.079 417.14 235.987 417.573 235.881 418.003C235.681 418.813 235.423 419.608 235.119 420.386C235.084 420.455 234.891 420.907 234.838 421.013C234.63 421.434 234.399 421.845 234.145 422.24C234.061 422.371 233.974 422.501 233.885 422.629C233.857 422.67 233.676 422.901 233.62 422.978C233.464 423.165 233.308 423.352 233.142 423.531C232.878 423.818 232.601 424.093 232.314 424.357C232.17 424.489 232.023 424.618 231.874 424.745C231.812 424.797 231.497 425.035 231.44 425.082C230.912 425.455 230.373 425.809 229.806 426.125C229.46 426.318 229.107 426.498 228.748 426.667C228.672 426.703 228.595 426.737 228.519 426.772C228.53 426.764 228.171 426.918 228.085 426.95C227.342 427.232 226.581 427.466 225.809 427.652C225.462 427.735 225.114 427.808 224.764 427.872C224.57 427.907 224.375 427.935 224.181 427.969C224.826 427.857 224.062 427.978 223.973 427.987C223.127 428.07 222.274 428.093 221.425 428.053C220.978 428.032 220.531 427.99 220.086 427.935C220.063 427.931 220.048 427.928 220.02 427.923C219.786 427.881 219.551 427.842 219.318 427.795C218.48 427.625 217.653 427.397 216.848 427.107C216.688 427.049 216.53 426.987 216.372 426.924C216.351 426.915 216.322 426.902 216.282 426.884C222.481 420.819 228.895 414.977 235.508 409.366C235.57 409.545 235.634 409.722 235.692 409.903C235.812 410.278 235.917 410.658 236.007 411.042C236.102 411.443 236.178 411.85 236.24 412.258C236.247 412.314 236.254 412.371 236.256 412.397C236.279 412.706 236.309 413.013 236.324 413.323C236.364 414.164 236.345 415.009 236.269 415.848Z" fill="white"></path>
<text fill="#1F2937" style="white-space: pre" xml:space="preserve" font-family="Calisto MT" font-size="29" letter-spacing="0em"><tspan x="35" y="639.582">Ta prochaine fausse note est la bonne. </tspan><tspan x="35" y="672.582">Utilise-la et fais-en une caractéristique </tspan><tspan x="35" y="705.582">saillante  de ton morceau.</tspan></text>
</g>
<rect x="1" y="1" width="552" height="827" rx="34" stroke="#10B981" stroke-width="2"></rect>
<defs>
<radialGradient id="paint0_radial_6488_201" cx="0" cy="0" r="1" gradientUnits="userSpaceOnUse" gradientTransform="translate(13521.6 13533.5) scale(13378.4 13258.9)">
<stop stop-color="#CC1B1B" stop-opacity="0.06"></stop>
<stop offset="1" stop-color="#CC1B1B" stop-opacity="0"></stop>
</radialGradient>
<clipPath id="clip0_6488_201">
<rect x="2" y="2" width="550" height="825" rx="33" fill="white"></rect>
</clipPath>
</defs>
</svg>