<svg width="554" height="829" viewBox="0 0 554 829" fill="none" xmlns="http://www.w3.org/2000/svg">
<g clip-path="url(#clip0_6488_465)">
<path d="M534.162 2H19.8378C9.98627 2 2 9.91497 2 19.6786V809.321C2 819.085 9.98627 827 19.8378 827H534.162C544.014 827 552 819.085 552 809.321V19.6786C552 9.91497 544.014 2 534.162 2Z" fill="white"></path>
<path d="M552 2H2V105.125H552V2Z" fill="#10B981"></path>
<text fill="white" style="white-space: pre" xml:space="preserve" font-family="Roboto Flex" font-size="52" font-weight="bold" letter-spacing="0em"><tspan x="35" y="72.2734">CONTRAINTE</tspan></text>
<text fill="#1A1A1A" style="white-space: pre" xml:space="preserve" font-family="Calistoga" font-size="36" letter-spacing="0em"><tspan x="35" y="159.1">Contrainte libre</tspan></text>
<path d="M85 181H35V187H85V181Z" fill="#10B981"></path>
<path d="M277.001 539.723C350.887 539.723 410.784 480.361 410.784 407.134C410.784 333.907 350.887 274.545 277.001 274.545C203.114 274.545 143.217 333.907 143.217 407.134C143.217 480.361 203.114 539.723 277.001 539.723Z" fill="url(#paint0_radial_6488_465)"></path>
<path d="M490.82 260H63.1801C57.0055 260 52 264.62 52 270.32V507.68C52 513.38 57.0055 518 63.1801 518H490.82C496.995 518 502 513.38 502 507.68V270.32C502 264.62 496.995 260 490.82 260Z" fill="#10B981" fill-opacity="0.1"></path>
<text fill="#1F2937" style="white-space: pre" xml:space="preserve" font-family="Calisto MT" font-size="29" letter-spacing="0em"><tspan x="35" y="639.582">Installe une règle stricte (ex: jouer </tspan><tspan x="35" y="672.582">uniquement sur 2 cordes) pendant 4 </tspan><tspan x="35" y="705.582">mesures, puis brise-la sur 5 ème.</tspan></text>
<path d="M154.5 360H110.5C107.462 360 105 362.462 105 365.5L105 409.5C105 412.538 107.462 415 110.5 415H154.5C157.538 415 160 412.538 160 409.5V365.5C160 362.462 157.538 360 154.5 360Z" fill="#10B981" fill-opacity="0.4"></path>
<path d="M223.25 360H179.25C176.212 360 173.75 362.462 173.75 365.5V409.5C173.75 412.538 176.212 415 179.25 415H223.25C226.288 415 228.75 412.538 228.75 409.5V365.5C228.75 362.462 226.288 360 223.25 360Z" fill="#10B981" fill-opacity="0.4"></path>
<path d="M292 360H248C244.962 360 242.5 362.462 242.5 365.5V409.5C242.5 412.538 244.962 415 248 415H292C295.038 415 297.5 412.538 297.5 409.5V365.5C297.5 362.462 295.038 360 292 360Z" fill="#10B981" fill-opacity="0.4"></path>
<path d="M360.75 360H316.75C313.712 360 311.25 362.462 311.25 365.5V409.5C311.25 412.538 313.712 415 316.75 415H360.75C363.788 415 366.25 412.538 366.25 409.5V365.5C366.25 362.462 363.788 360 360.75 360Z" fill="#10B981" fill-opacity="0.4"></path>
<path d="M393.75 332L448.75 414.5H380L393.75 332Z" fill="#10B981"></path>
<text transform="translate(408 436)" fill="#10B981" style="white-space: pre" xml:space="preserve" font-family="Roboto Flex" font-size="20" font-weight="bold" letter-spacing="0em"><tspan x="-0.570312" y="18.3359">!</tspan></text>
</g>
<rect x="1" y="1" width="552" height="827" rx="34" stroke="#10B981" stroke-width="2"></rect>
<defs>
<radialGradient id="paint0_radial_6488_465" cx="0" cy="0" r="1" gradientUnits="userSpaceOnUse" gradientTransform="translate(13521.6 13533.5) scale(13378.4 13258.9)">
<stop stop-color="#CC1B1B" stop-opacity="0.06"></stop>
<stop offset="1" stop-color="#CC1B1B" stop-opacity="0"></stop>
</radialGradient>
<clipPath id="clip0_6488_465">
<rect x="2" y="2" width="550" height="825" rx="33" fill="white"></rect>
</clipPath>
</defs>
</svg>