<svg width="554" height="829" viewBox="0 0 554 829" fill="none" xmlns="http://www.w3.org/2000/svg">
<g clip-path="url(#clip0_6488_85)">
<path d="M534.162 2H19.8378C9.98627 2 2 9.91497 2 19.6786V809.321C2 819.085 9.98627 827 19.8378 827H534.162C544.014 827 552 819.085 552 809.321V19.6786C552 9.91497 544.014 2 534.162 2Z" fill="white"></path>
<path d="M552 2H2V105.125H552V2Z" fill="#10B981"></path>
<text fill="white" style="white-space: pre" xml:space="preserve" font-family="Roboto Flex" font-size="52" font-weight="bold" letter-spacing="0em"><tspan x="35" y="72.2734">CONTRAINTE</tspan></text>
<text fill="#1A1A1A" style="white-space: pre" xml:space="preserve" font-family="Calistoga" font-size="36" letter-spacing="0em"><tspan x="35" y="159.1">Moins = plus</tspan></text>
<path d="M85 181H35V187H85V181Z" fill="#10B981"></path>
<path d="M277.001 539.723C350.887 539.723 410.784 480.361 410.784 407.134C410.784 333.907 350.887 274.544 277.001 274.544C203.114 274.544 143.217 333.907 143.217 407.134C143.217 480.361 203.114 539.723 277.001 539.723Z" fill="url(#paint0_radial_6488_85)"></path>
<path d="M490.82 260H63.1801C57.0055 260 52 264.62 52 270.32V507.68C52 513.38 57.0055 518 63.1801 518H490.82C496.995 518 502 513.38 502 507.68V270.32C502 264.62 496.995 260 490.82 260Z" fill="#10B981" fill-opacity="0.1"></path>
<text fill="#1F2937" style="white-space: pre" xml:space="preserve" font-family="Calisto MT" font-size="29" letter-spacing="0em"><tspan x="35" y="639.582">Retire ce que tu pensais indispensable. </tspan><tspan x="35" y="672.582">Joue avec un doigt en moins, une </tspan><tspan x="35" y="705.582">corde en moins, deux fois moins de </tspan><tspan x="35" y="738.582">notes, etc.</tspan></text>
<path d="M304 410.9V394.1C304 392.94 303.427 392 302.72 392H241.28C240.573 392 240 392.94 240 394.1V410.9C240 412.06 240.573 413 241.28 413H302.72C303.427 413 304 412.06 304 410.9Z" fill="#10B981" fill-opacity="0.4"></path>
<path d="M304 382.9V366.1C304 364.94 303.427 364 302.72 364H241.28C240.573 364 240 364.94 240 366.1V382.9C240 384.06 240.573 385 241.28 385H302.72C303.427 385 304 384.06 304 382.9Z" fill="#10B981" fill-opacity="0.4"></path>
<path d="M464 400.2V377.8C464 376.254 462.97 375 461.7 375H351.3C350.03 375 349 376.254 349 377.8V400.2C349 401.746 350.03 403 351.3 403H461.7C462.97 403 464 401.746 464 400.2Z" fill="#10B981"></path>
<path d="M395.8 446H418.2C419.746 446 421 444.97 421 443.7L421 333.3C421 332.03 419.746 331 418.2 331H395.8C394.254 331 393 332.03 393 333.3L393 443.7C393 444.97 394.254 446 395.8 446Z" fill="#10B981"></path>
<path d="M188 400.2V377.8C188 376.254 187.122 375 186.04 375H91.96C90.8775 375 90 376.254 90 377.8V400.2C90 401.746 90.8775 403 91.96 403H186.04C187.122 403 188 401.746 188 400.2Z" fill="#10B981"></path>
</g>
<rect x="1" y="1" width="552" height="827" rx="34" stroke="#10B981" stroke-width="2"></rect>
<defs>
<radialGradient id="paint0_radial_6488_85" cx="0" cy="0" r="1" gradientUnits="userSpaceOnUse" gradientTransform="translate(13521.6 13533.5) scale(13378.4 13258.9)">
<stop stop-color="#CC1B1B" stop-opacity="0.06"></stop>
<stop offset="1" stop-color="#CC1B1B" stop-opacity="0"></stop>
</radialGradient>
<clipPath id="clip0_6488_85">
<rect x="2" y="2" width="550" height="825" rx="33" fill="white"></rect>
</clipPath>
</defs>
</svg>