<svg width="554" height="829" viewBox="0 0 554 829" fill="none" xmlns="http://www.w3.org/2000/svg">
<g clip-path="url(#clip0_8308_952)">
<path d="M534.162 2H19.8378C9.98627 2 2 9.91497 2 19.6786V809.321C2 819.085 9.98627 827 19.8378 827H534.162C544.014 827 552 819.085 552 809.321V19.6786C552 9.91497 544.014 2 534.162 2Z" fill="white"></path>
<path d="M552 2H2V105.125H552V2Z" fill="#F59E0B"></path>
<text fill="white" style="white-space: pre" xml:space="preserve" font-family="Roboto Flex" font-size="52" font-weight="bold" letter-spacing="0em"><tspan x="35" y="72.2734">GIMMICK</tspan></text>
<text fill="#1A1A1A" style="white-space: pre" xml:space="preserve" font-family="Calistoga" font-size="36" letter-spacing="0em"><tspan x="34.9999" y="159.1">Add9</tspan></text>
<path d="M84.9999 181H34.9999V187H84.9999V181Z" fill="#F59E0B"></path>
<path d="M277.001 539.723C350.887 539.723 410.784 480.361 410.784 407.134C410.784 333.907 350.887 274.545 277.001 274.545C203.114 274.545 143.217 333.907 143.217 407.134C143.217 480.361 203.114 539.723 277.001 539.723Z" fill="url(#paint0_radial_8308_952)"></path>
<path d="M490.82 260H63.1801C57.0055 260 52 264.62 52 270.32V507.68C52 513.38 57.0055 518 63.1801 518H490.82C496.995 518 502 513.38 502 507.68V270.32C502 264.62 496.995 260 490.82 260Z" fill="#F59E0B" fill-opacity="0.1"></path>
<rect x="155.893" y="283.5" width="226.47" height="211.148" stroke="black" stroke-width="5"></rect>
<line x1="248.5" y1="291.214" x2="248.5" y2="492.214" stroke="black" stroke-width="5"></line>
<line x1="293.5" y1="291.214" x2="293.5" y2="492.214" stroke="black" stroke-width="5"></line>
<line x1="157" y1="336.713" x2="380.999" y2="336.713" stroke="black" stroke-width="5"></line>
<line x1="157" y1="287.048" x2="380.999" y2="287.048" stroke="black" stroke-width="8"></line>
<line x1="157" y1="390.045" x2="380.999" y2="390.045" stroke="black" stroke-width="5"></line>
<line x1="157" y1="443.377" x2="380.999" y2="443.377" stroke="black" stroke-width="5"></line>
<line x1="205.5" y1="291.214" x2="205.5" y2="492.214" stroke="black" stroke-width="5"></line>
<line x1="337.5" y1="291.214" x2="337.5" y2="492.214" stroke="black" stroke-width="5"></line>
<path d="M249 327C256.732 327 263 320.732 263 313C263 305.268 256.732 299 249 299C241.268 299 235 305.268 235 313C235 320.732 241.268 327 249 327Z" fill="#FCD34D"></path>
<path d="M293 432C300.732 432 307 425.732 307 418C307 410.268 300.732 404 293 404C285.268 404 279 410.268 279 418C279 425.732 285.268 432 293 432Z" fill="#F59E0B"></path>
<text transform="translate(284 408)" fill="white" style="white-space: pre" xml:space="preserve" font-family="Calistoga" font-size="15" letter-spacing="0em"><tspan x="0.0444336" y="15.25">+9</tspan></text>
<path d="M156 483C163.732 483 170 476.732 170 469C170 461.268 163.732 455 156 455C148.268 455 142 461.268 142 469C142 476.732 148.268 483 156 483Z" fill="#FCD34D"></path>
<path d="M206 432C213.732 432 220 425.732 220 418C220 410.268 213.732 404 206 404C198.268 404 192 410.268 192 418C192 425.732 198.268 432 206 432Z" fill="#FCD34D"></path>
<text fill="#1F2937" style="white-space: pre" xml:space="preserve" font-family="Calisto MT" font-size="29" letter-spacing="0em"><tspan x="35" y="639.582">Enrichis ta triade majeure ou mineure </tspan><tspan x="35" y="672.582">d’une neuvième majeure. Tu peux </tspan><tspan x="35" y="705.582">utiliser le système CAGED pour </tspan><tspan x="35" y="738.582">repérer tes formes favorites.</tspan></text>
</g>
<rect x="1" y="1" width="552" height="827" rx="34" stroke="#F59E0B" stroke-width="2"></rect>
<defs>
<radialGradient id="paint0_radial_8308_952" cx="0" cy="0" r="1" gradientUnits="userSpaceOnUse" gradientTransform="translate(13521.6 13533.5) scale(13378.4 13258.9)">
<stop stop-color="#CC1B1B" stop-opacity="0.06"></stop>
<stop offset="1" stop-color="#CC1B1B" stop-opacity="0"></stop>
</radialGradient>
<clipPath id="clip0_8308_952">
<rect x="2" y="2" width="550" height="825" rx="33" fill="white"></rect>
</clipPath>
</defs>
</svg>