<svg width="554" height="829" viewBox="0 0 554 829" fill="none" xmlns="http://www.w3.org/2000/svg">
<g clip-path="url(#clip0_6489_2026)">
<path d="M534.162 2H19.8378C9.98627 2 2 9.91497 2 19.6786V809.321C2 819.085 9.98627 827 19.8378 827H534.162C544.014 827 552 819.085 552 809.321V19.6786C552 9.91497 544.014 2 534.162 2Z" fill="white"></path>
<path d="M552 2H2V105.125H552V2Z" fill="#DC2626"></path>
<text fill="white" style="white-space: pre" xml:space="preserve" font-family="Roboto Flex" font-size="52" font-weight="bold" letter-spacing="0em"><tspan x="35" y="72.2734">HARMONIE</tspan></text>
<text fill="#1A1A1A" style="white-space: pre" xml:space="preserve" font-family="Calistoga" font-size="36" letter-spacing="0em"><tspan x="35" y="159.1">Blue note</tspan></text>
<path d="M85 181H35V187H85V181Z" fill="#DC2626"></path>
<path d="M277.001 539.723C350.887 539.723 410.784 480.361 410.784 407.134C410.784 333.907 350.887 274.545 277.001 274.545C203.114 274.545 143.217 333.907 143.217 407.134C143.217 480.361 203.114 539.723 277.001 539.723Z" fill="url(#paint0_radial_6489_2026)"></path>
<text fill="#1F2937" style="white-space: pre" xml:space="preserve" font-family="Calisto MT" font-size="29" letter-spacing="0em"><tspan x="35" y="639.582">Ajoute la quinte bémol (b5) comme </tspan><tspan x="35" y="672.582">note de passage. Fais-la frotter pour </tspan><tspan x="35" y="705.582">ajouter une touche blues à ton jeu.</tspan></text>
<path d="M277.001 539.723C350.887 539.723 410.784 480.361 410.784 407.134C410.784 333.907 350.887 274.545 277.001 274.545C203.114 274.545 143.217 333.907 143.217 407.134C143.217 480.361 203.114 539.723 277.001 539.723Z" fill="url(#paint1_radial_6489_2026)"></path>
<path d="M490.82 260H63.1801C57.0055 260 52 264.62 52 270.32V507.68C52 513.38 57.0055 518 63.1801 518H490.82C496.995 518 502 513.38 502 507.68V270.32C502 264.62 496.995 260 490.82 260Z" fill="#DC2626" fill-opacity="0.1"></path>
<rect x="77.5" y="336.5" width="401" height="122" stroke="black" stroke-width="5"></rect>
<line x1="115.5" y1="335" x2="115.5" y2="456" stroke="black" stroke-width="5"></line>
<line x1="148.5" y1="335" x2="148.5" y2="457" stroke="black" stroke-width="5"></line>
<line x1="79" y1="375.5" x2="476" y2="375.5" stroke="black" stroke-width="5"></line>
<line x1="79" y1="414.5" x2="479" y2="414.5" stroke="black" stroke-width="5"></line>
<line x1="445.5" y1="335" x2="445.5" y2="456" stroke="black" stroke-width="5"></line>
<line x1="181.5" y1="336" x2="181.5" y2="456" stroke="black" stroke-width="5"></line>
<line x1="214.5" y1="336" x2="214.5" y2="456" stroke="black" stroke-width="5"></line>
<line x1="247.5" y1="336" x2="247.5" y2="456" stroke="black" stroke-width="5"></line>
<line x1="280.5" y1="336" x2="280.5" y2="456" stroke="black" stroke-width="5"></line>
<line x1="313.5" y1="336" x2="313.5" y2="456" stroke="black" stroke-width="5"></line>
<line x1="346.5" y1="336" x2="346.5" y2="456" stroke="black" stroke-width="5"></line>
<line x1="379.5" y1="335" x2="379.5" y2="456" stroke="black" stroke-width="5"></line>
<line x1="412.5" y1="335" x2="412.5" y2="456" stroke="black" stroke-width="5"></line>
<path d="M231 425C237.075 425 242 420.075 242 414C242 407.925 237.075 403 231 403C224.925 403 220 407.925 220 414C220 420.075 224.925 425 231 425Z" fill="#DC2626"></path>
<path d="M198 386C204.075 386 209 381.075 209 375C209 368.925 204.075 364 198 364C191.925 364 187 368.925 187 375C187 381.075 191.925 386 198 386Z" fill="#3B82F6"></path>
<path d="M164.904 352C167.613 352 169.809 354.195 169.809 356.904C169.809 359.613 167.613 361.809 164.904 361.809C162.196 361.809 160 359.613 160 356.904C160 354.195 162.196 352 164.904 352Z" fill="#DC2626" fill-opacity="0.4"></path>
<path d="M165 425C171.075 425 176 420.075 176 414C176 407.925 171.075 403 165 403C158.925 403 154 407.925 154 414C154 420.075 158.925 425 165 425Z" fill="#DC2626"></path>
<path d="M461.904 391C464.613 391 466.809 393.195 466.809 395.904C466.809 398.613 464.613 400.809 461.904 400.809C459.196 400.809 457 398.613 457 395.904C457 393.195 459.196 391 461.904 391Z" fill="#DC2626" fill-opacity="0.4"></path>
<path d="M132 386C138.075 386 143 381.075 143 375C143 368.925 138.075 364 132 364C125.925 364 121 368.925 121 375C121 381.075 125.925 386 132 386Z" fill="#DC2626"></path>
<path d="M132 347C138.075 347 143 342.075 143 336C143 329.925 138.075 325 132 325C125.925 325 121 329.925 121 336C121 342.075 125.925 347 132 347Z" fill="#DC2626"></path>
<path d="M165 386C171.075 386 176 381.075 176 375C176 368.925 171.075 364 165 364C158.925 364 154 368.925 154 375C154 381.075 158.925 386 165 386Z" fill="#DC2626"></path>
<path d="M198 347C204.075 347 209 342.075 209 336C209 329.925 204.075 325 198 325C191.925 325 187 329.925 187 336C187 342.075 191.925 347 198 347Z" fill="#DC2626"></path>
<path d="M231 386C237.075 386 242 381.075 242 375C242 368.925 237.075 364 231 364C224.925 364 220 368.925 220 375C220 381.075 224.925 386 231 386Z" fill="#DC2626"></path>
<path d="M231 347C237.075 347 242 342.075 242 336C242 329.925 237.075 325 231 325C224.925 325 220 329.925 220 336C220 342.075 224.925 347 231 347Z" fill="#DC2626"></path>
<path d="M230.904 352C233.613 352 235.809 354.195 235.809 356.904C235.809 359.613 233.613 361.809 230.904 361.809C228.196 361.809 226 359.613 226 356.904C226 354.195 228.196 352 230.904 352Z" fill="#DC2626" fill-opacity="0.4"></path>
<path d="M361.905 352C364.614 352 366.81 354.195 366.81 356.904C366.81 359.613 364.614 361.809 361.905 361.809C359.197 361.809 357.001 359.613 357.001 356.904C357.001 354.195 359.197 352 361.905 352Z" fill="#DC2626" fill-opacity="0.4"></path>
<path d="M295.904 352C298.613 352 300.809 354.195 300.809 356.904C300.809 359.613 298.613 361.809 295.904 361.809C293.196 361.809 291 359.613 291 356.904C291 354.195 293.196 352 295.904 352Z" fill="#DC2626" fill-opacity="0.4"></path>
</g>
<rect x="1" y="1" width="552" height="827" rx="34" stroke="#DC2626" stroke-width="2"></rect>
<defs>
<radialGradient id="paint0_radial_6489_2026" cx="0" cy="0" r="1" gradientUnits="userSpaceOnUse" gradientTransform="translate(13521.6 13533.5) scale(13378.4 13258.9)">
<stop stop-color="#CC1B1B" stop-opacity="0.06"></stop>
<stop offset="1" stop-color="#CC1B1B" stop-opacity="0"></stop>
</radialGradient>
<radialGradient id="paint1_radial_6489_2026" cx="0" cy="0" r="1" gradientUnits="userSpaceOnUse" gradientTransform="translate(13521.6 13533.5) scale(13378.4 13258.9)">
<stop stop-color="#CC1B1B" stop-opacity="0.06"></stop>
<stop offset="1" stop-color="#CC1B1B" stop-opacity="0"></stop>
</radialGradient>
<clipPath id="clip0_6489_2026">
<rect x="2" y="2" width="550" height="825" rx="33" fill="white"></rect>
</clipPath>
</defs>
</svg>