<svg width="554" height="829" viewBox="0 0 554 829" fill="none" xmlns="http://www.w3.org/2000/svg">
<g clip-path="url(#clip0_6492_3920)">
<path d="M534.162 2H19.8378C9.98627 2 2 9.91497 2 19.6786V809.321C2 819.085 9.98627 827 19.8378 827H534.162C544.014 827 552 819.085 552 809.321V19.6786C552 9.91497 544.014 2 534.162 2Z" fill="white"></path>
<path d="M552 2H2V105.125H552V2Z" fill="#8B5CF6"></path>
<text fill="white" style="white-space: pre" xml:space="preserve" font-family="Roboto Flex" font-size="52" font-weight="bold" letter-spacing="0em"><tspan x="35" y="72.2734">RYTHME</tspan></text>
<text fill="#1A1A1A" style="white-space: pre" xml:space="preserve" font-family="Calistoga" font-size="36" letter-spacing="0em"><tspan x="35" y="159.1">One note groove</tspan></text>
<path d="M85 181H35V187H85V181Z" fill="#8B5CF6"></path>
<path d="M277.001 539.723C350.887 539.723 410.784 480.361 410.784 407.134C410.784 333.907 350.887 274.544 277.001 274.544C203.114 274.544 143.217 333.907 143.217 407.134C143.217 480.361 203.114 539.723 277.001 539.723Z" fill="url(#paint0_radial_6492_3920)"></path>
<path d="M490.82 260H63.1801C57.0055 260 52 264.62 52 270.32V507.68C52 513.38 57.0055 518 63.1801 518H490.82C496.995 518 502 513.38 502 507.68V270.32C502 264.62 496.995 260 490.82 260Z" fill="#8B5CF6" fill-opacity="0.1"></path>
<text fill="#1F2937" style="white-space: pre" xml:space="preserve" font-family="Calisto MT" font-size="29" letter-spacing="0em"><tspan x="35" y="639.582">Choisis une note et insiste dessus. Ne </tspan><tspan x="35" y="672.582">change pas de case, fais varier </tspan><tspan x="35" y="705.582">uniquement le rythme et l&#39;attaque pour </tspan><tspan x="35" y="738.582">la faire groover.</tspan></text>
<path d="M98 388.75H455.5" stroke="#8B5CF6" stroke-opacity="0.3" stroke-width="2"></path>
<path d="M159.625 409.25C171.016 409.25 180.25 400.016 180.25 388.625C180.25 377.234 171.016 368 159.625 368C148.234 368 139 377.234 139 388.625C139 400.016 148.234 409.25 159.625 409.25Z" fill="#8B5CF6"></path>
<path d="M228.375 409.25C239.766 409.25 249 400.016 249 388.625C249 377.234 239.766 368 228.375 368C216.984 368 207.75 377.234 207.75 388.625C207.75 400.016 216.984 409.25 228.375 409.25Z" fill="#8B5CF6"></path>
<path d="M278.625 409.25C290.016 409.25 299.25 400.016 299.25 388.625C299.25 377.234 290.016 368 278.625 368C267.234 368 258 377.234 258 388.625C258 400.016 267.234 409.25 278.625 409.25Z" fill="#8B5CF6"></path>
<path d="M365.875 409.25C377.266 409.25 386.5 400.016 386.5 388.625C386.5 377.234 377.266 368 365.875 368C354.484 368 345.25 377.234 345.25 388.625C345.25 400.016 354.484 409.25 365.875 409.25Z" fill="#8B5CF6"></path>
<text fill="#8B5CF6" style="white-space: pre" xml:space="preserve" font-family="Calisto MT" font-size="23" font-weight="bold" letter-spacing="0em"><tspan x="202.329" y="450.469">MÊME NOTE</tspan></text>
</g>
<rect x="1" y="1" width="552" height="827" rx="34" stroke="#8B5CF6" stroke-width="2"></rect>
<defs>
<radialGradient id="paint0_radial_6492_3920" cx="0" cy="0" r="1" gradientUnits="userSpaceOnUse" gradientTransform="translate(13521.6 13533.5) scale(13378.4 13258.9)">
<stop stop-color="#CC1B1B" stop-opacity="0.06"></stop>
<stop offset="1" stop-color="#CC1B1B" stop-opacity="0"></stop>
</radialGradient>
<clipPath id="clip0_6492_3920">
<rect x="2" y="2" width="550" height="825" rx="33" fill="white"></rect>
</clipPath>
</defs>
</svg>