<svg width="554" height="829" viewBox="0 0 554 829" fill="none" xmlns="http://www.w3.org/2000/svg">
<g clip-path="url(#clip0_6492_3900)">
<path d="M534.162 2H19.8378C9.98627 2 2 9.91497 2 19.6786V809.321C2 819.085 9.98627 827 19.8378 827H534.162C544.014 827 552 819.085 552 809.321V19.6786C552 9.91497 544.014 2 534.162 2Z" fill="white"></path>
<path d="M552 2H2V105.125H552V2Z" fill="#8B5CF6"></path>
<text fill="white" style="white-space: pre" xml:space="preserve" font-family="Roboto Flex" font-size="52" font-weight="bold" letter-spacing="0em"><tspan x="35" y="72.2734">RYTHME</tspan></text>
<text fill="#1A1A1A" style="white-space: pre" xml:space="preserve" font-family="Calistoga" font-size="36" letter-spacing="0em"><tspan x="35" y="159.1">Croche pointée</tspan></text>
<path d="M85 181H35V187H85V181Z" fill="#8B5CF6"></path>
<path d="M276.784 540.179C350.671 540.179 410.568 480.816 410.568 407.589C410.568 334.362 350.671 275 276.784 275C202.897 275 143 334.362 143 407.589C143 480.816 202.897 540.179 276.784 540.179Z" fill="url(#paint0_radial_6492_3900)"></path>
<path d="M490.82 260H63.1801C57.0055 260 52 264.62 52 270.32V507.68C52 513.38 57.0055 518 63.1801 518H490.82C496.995 518 502 513.38 502 507.68V270.32C502 264.62 496.995 260 490.82 260Z" fill="#8B5CF6" fill-opacity="0.1"></path>
<path d="M280.75 323.74V320H276.92V423.026C275.504 421.532 273.627 420.338 271.558 419.578C268.642 418.445 265.428 417.971 262.229 417.926C255.804 417.865 249.44 419.691 243.999 422.647C238.55 425.614 234.048 430.028 231.469 435.141C228.938 440.126 227.72 446.135 230.943 450.895C234.23 455.619 240.928 457.459 247.131 457.617C253.486 457.791 259.905 456.117 265.349 453.167C270.765 450.193 275.45 445.983 278.223 440.873C279.599 438.34 280.52 435.6 280.705 432.811C280.735 432.486 280.693 432.161 280.693 431.833L280.747 431.951V346.286C289.563 364.336 322.049 347.143 324.823 399.064C328.413 319.332 305.818 358.671 280.75 323.74Z" fill="#8B5CF6"></path>
<path d="M314.078 428.848C314.078 432.989 310.718 436.349 306.577 436.349C302.434 436.349 299.078 432.989 299.078 428.848C299.078 424.705 302.434 421.349 306.577 421.349C310.718 421.349 314.078 424.705 314.078 428.848Z" fill="#8B5CF6"></path>
<text fill="#1F2937" style="white-space: pre" xml:space="preserve" font-family="Calisto MT" font-size="29" letter-spacing="0em"><tspan x="35" y="639.582">Ne joue pas sur le 2, mais accentue le </tspan><tspan x="35" y="672.582">&#39;ET&#39; juste après. Créé un rebond </tspan><tspan x="35" y="705.582">inattendu.</tspan></text>
</g>
<rect x="1" y="1" width="552" height="827" rx="34" stroke="#8B5CF6" stroke-width="2"></rect>
<defs>
<radialGradient id="paint0_radial_6492_3900" cx="0" cy="0" r="1" gradientUnits="userSpaceOnUse" gradientTransform="translate(13521.4 13533.9) scale(13378.4 13258.9)">
<stop stop-color="#CC1B1B" stop-opacity="0.06"></stop>
<stop offset="1" stop-color="#CC1B1B" stop-opacity="0"></stop>
</radialGradient>
<clipPath id="clip0_6492_3900">
<rect x="2" y="2" width="550" height="825" rx="33" fill="white"></rect>
</clipPath>
</defs>
</svg>