<svg width="554" height="829" viewBox="0 0 554 829" fill="none" xmlns="http://www.w3.org/2000/svg">
<g clip-path="url(#clip0_6492_3840)">
<rect x="2" y="2" width="550" height="825" rx="33" fill="white"></rect>
<path d="M534.162 2H19.8378C9.98627 2 2 9.91497 2 19.6786V809.321C2 819.085 9.98627 827 19.8378 827H534.162C544.014 827 552 819.085 552 809.321V19.6786C552 9.91497 544.014 2 534.162 2Z" fill="white"></path>
<path d="M552 2H2V105.125H552V2Z" fill="#8B5CF6"></path>
<text fill="white" style="white-space: pre" xml:space="preserve" font-family="Roboto Flex" font-size="52" font-weight="bold" letter-spacing="0em"><tspan x="35" y="72.2734">RYTHME</tspan></text>
<text fill="#1A1A1A" style="white-space: pre" xml:space="preserve" font-family="Calistoga" font-size="36" letter-spacing="0em"><tspan x="35" y="159.1">Triolet</tspan></text>
<path d="M85 181H35V187H85V181Z" fill="#8B5CF6"></path>
<path d="M277.001 539.723C350.887 539.723 410.784 480.361 410.784 407.134C410.784 333.907 350.887 274.544 277.001 274.544C203.114 274.544 143.217 333.907 143.217 407.134C143.217 480.361 203.114 539.723 277.001 539.723Z" fill="url(#paint0_radial_6492_3840)"></path>
<path d="M490.82 260H63.1801C57.0055 260 52 264.62 52 270.32V507.68C52 513.38 57.0055 518 63.1801 518H490.82C496.995 518 502 513.38 502 507.68V270.32C502 264.62 496.995 260 490.82 260Z" fill="#8B5CF6" fill-opacity="0.1"></path>
<path d="M386 333H385.924H382.9H206.879V333.002H206.785V416.841C205.639 415.624 204.12 414.653 202.446 414.035C200.085 413.113 197.484 412.727 194.895 412.692C189.695 412.64 184.544 414.126 180.14 416.532C175.729 418.947 172.085 422.539 169.998 426.699C167.95 430.756 166.964 435.646 169.573 439.519C172.233 443.363 177.654 444.864 182.675 444.99C187.819 445.131 193.014 443.769 197.42 441.368C201.804 438.951 205.595 435.522 207.84 431.364C208.954 429.302 209.699 427.072 209.849 424.803C209.873 424.539 209.839 424.276 209.839 424.007L209.883 424.103V350.646H294.841V416.841C293.695 415.624 292.176 414.653 290.502 414.035C288.141 413.113 285.54 412.727 282.951 412.692C277.751 412.64 272.6 414.126 268.196 416.532C263.785 418.947 260.141 422.539 258.054 426.699C256.006 430.756 255.02 435.646 257.629 439.519C260.289 443.363 265.71 444.864 270.731 444.99C275.875 445.131 281.07 443.769 285.476 441.368C289.86 438.951 293.651 435.522 295.896 431.364C297.01 429.302 297.755 427.072 297.905 424.803C297.929 424.539 297.895 424.276 297.895 424.007L297.939 424.103V350.646H382.897V416.841C381.751 415.624 380.232 414.653 378.557 414.035C376.197 413.113 373.596 412.727 371.007 412.69C365.807 412.638 360.656 414.126 356.252 416.532C351.841 418.947 348.197 422.539 346.11 426.699C344.062 430.756 343.076 435.646 345.685 439.519C348.345 443.363 353.766 444.861 358.787 444.99C363.931 445.131 369.126 443.769 373.532 441.368C377.916 438.951 381.707 435.522 383.952 431.364C385.066 429.302 385.811 427.072 385.961 424.803C385.985 424.539 385.951 424.274 385.951 424.007L385.993 424.103V333H386Z" fill="#8B5CF6"></path>
<text fill="#1F2937" style="white-space: pre" xml:space="preserve" font-family="Calisto MT" font-size="29" letter-spacing="0em"><tspan x="35" y="639.582">Joue 3 notes par temps et pense &#39;1-2-3, </tspan><tspan x="35" y="672.582">1-2-3&#39; en continu . Introduis le ternaire </tspan><tspan x="35" y="705.582">au monde binaire.</tspan></text>
</g>
<rect x="1" y="1" width="552" height="827" rx="34" stroke="#8B5CF6" stroke-width="2"></rect>
<defs>
<radialGradient id="paint0_radial_6492_3840" cx="0" cy="0" r="1" gradientUnits="userSpaceOnUse" gradientTransform="translate(13521.6 13533.5) scale(13378.4 13258.9)">
<stop stop-color="#CC1B1B" stop-opacity="0.06"></stop>
<stop offset="1" stop-color="#CC1B1B" stop-opacity="0"></stop>
</radialGradient>
<clipPath id="clip0_6492_3840">
<rect x="2" y="2" width="550" height="825" rx="33" fill="white"></rect>
</clipPath>
</defs>
</svg>