<svg width="554" height="829" viewBox="0 0 554 829" fill="none" xmlns="http://www.w3.org/2000/svg">
<g clip-path="url(#clip0_8334_199)">
<path d="M528 2H26C12.7452 2 2 12.7452 2 26V803C2 816.255 12.7452 827 26 827H528C541.255 827 552 816.255 552 803V26C552 12.7452 541.255 2 528 2Z" fill="#FAFAFA"></path>
<path d="M7.5 72H2V154.5H7.5V72Z" fill="#0D9488"></path>
<text fill="#0D9488" fill-opacity="0.8" style="white-space: pre" xml:space="preserve" font-family="Calistoga" font-size="25" letter-spacing="0em"><tspan x="35" y="53.25">PROCESSUS • MÉTHODE</tspan></text>
<text fill="#0F172A" style="white-space: pre" xml:space="preserve" font-family="Calistoga" font-size="52" letter-spacing="0em"><tspan x="35" y="131.2">La planification </tspan><tspan x="35" y="199.2">graphique</tspan></text>
<path d="M101 232H35V237.5H101V232Z" fill="#0D9488"></path>
<path d="M97 388H457" stroke="#CBD5E1" stroke-width="2"></path>
<path d="M297 318H257V388H297V318Z" fill="#2DD4BF" fill-opacity="0.1"></path>
<text fill="#0D9488" style="white-space: pre" xml:space="preserve" font-family="Calistoga" font-size="12" letter-spacing="0em"><tspan x="254.459" y="280.2">CLIMAX</tspan></text>
<path d="M97 388C177 388 227 318 277 318C327 318 377 388 457 388" stroke="url(#paint0_linear_8334_199)" stroke-width="5" stroke-linecap="round"></path>
<path d="M277 326C281.418 326 285 322.418 285 318C285 313.582 281.418 310 277 310C272.582 310 269 313.582 269 318C269 322.418 272.582 326 277 326Z" fill="#0F172A"></path>
<path opacity="0.3" d="M277 332C284.732 332 291 325.732 291 318C291 310.268 284.732 304 277 304C269.268 304 263 310.268 263 318C263 325.732 269.268 332 277 332Z" stroke="#0D9488" stroke-width="2"></path>
<text fill="#0D9488" style="white-space: pre" xml:space="preserve" font-family="Calistoga" font-size="25" letter-spacing="0em"><tspan x="35" y="538.25">Dessiner la forme du morceau.</tspan></text>
<text fill="#475569" style="white-space: pre" xml:space="preserve" font-family="Calisto MT" font-size="24" letter-spacing="0em"><tspan x="35" y="600.344">Trace une ligne du temps. Dessine des blocs </tspan><tspan x="35" y="628.344">d&#39;intensité, des courbes d&#39;énergie ou des </tspan><tspan x="35" y="656.344">couleurs pour chaque section.</tspan></text>
<text fill="#0D9488" style="white-space: pre" xml:space="preserve" font-family="Calistoga" font-size="20" letter-spacing="0em"><tspan x="35" y="791">Le plan dicte les notes, pas l&#39;inverse.</tspan></text>
<path d="M530 -41H24C11.8497 -41 2 -31.1503 2 -19V762C2 774.15 11.8497 784 24 784H530C542.15 784 552 774.15 552 762V-19C552 -31.1503 542.15 -41 530 -41Z" fill="url(#paint1_radial_8334_199)"></path>
<path d="M519 738.25H35V739.75H519V738.25Z" fill="#E2E8F0"></path>
</g>
<rect x="1" y="1" width="552" height="827" rx="34" stroke="#0D9488" stroke-width="2"></rect>
<defs>
<linearGradient id="paint0_linear_8334_199" x1="97" y1="318" x2="457" y2="318" gradientUnits="userSpaceOnUse">
<stop stop-color="#2DD4BF"></stop>
<stop offset="1" stop-color="#0D9488"></stop>
</linearGradient>
<radialGradient id="paint1_radial_8334_199" cx="0" cy="0" r="1" gradientUnits="userSpaceOnUse" gradientTransform="translate(277 344) rotate(90) scale(165 165)">
<stop stop-color="#0D9488" stop-opacity="0.15"></stop>
<stop offset="1" stop-color="#0D9488" stop-opacity="0"></stop>
</radialGradient>
<clipPath id="clip0_8334_199">
<rect x="2" y="2" width="550" height="825" rx="33" fill="white"></rect>
</clipPath>
</defs>
</svg>