<svg width="554" height="829" viewBox="0 0 554 829" fill="none" xmlns="http://www.w3.org/2000/svg">
<g clip-path="url(#clip0_8334_155)">
<path d="M528 2H26C12.7452 2 2 12.7452 2 26V803C2 816.255 12.7452 827 26 827H528C541.255 827 552 816.255 552 803V26C552 12.7452 541.255 2 528 2Z" fill="#FAFAFA"></path>
<path d="M519 738.25H35V739.75H519V738.25Z" fill="#E2E8F0"></path>
<path d="M7.5 72H2V154.5H7.5V72Z" fill="#0F172A"></path>
<text fill="#0F172A" fill-opacity="0.8" style="white-space: pre" xml:space="preserve" font-family="Calistoga" font-size="25" letter-spacing="0em"><tspan x="35" y="53.25">MINDSET • (DÉ)BLOCAGE</tspan></text>
<text fill="#0F172A" style="white-space: pre" xml:space="preserve" font-family="Calistoga" font-size="52" letter-spacing="0em"><tspan x="35" y="131.2">La pause </tspan><tspan x="35" y="199.2">stratégique</tspan></text>
<path d="M131 232H65V237.5H131V232Z" fill="#0F172A"></path>
<path opacity="0.2" d="M277 453C332.228 453 377 408.228 377 353C377 297.772 332.228 253 277 253C221.772 253 177 297.772 177 353C177 408.228 221.772 453 277 453Z" stroke="#0F172A" stroke-dasharray="4 8"></path>
<path opacity="0.4" d="M277 423C315.66 423 347 391.66 347 353C347 314.34 315.66 283 277 283C238.34 283 207 314.34 207 353C207 391.66 238.34 423 277 423Z" stroke="#0F172A" stroke-width="1.5" stroke-dasharray="8 12"></path>
<path d="M270 333H264C262.895 333 262 333.895 262 335V371C262 372.105 262.895 373 264 373H270C271.105 373 272 372.105 272 371V335C272 333.895 271.105 333 270 333Z" fill="#0F172A"></path>
<path d="M290 333H284C282.895 333 282 333.895 282 335V371C282 372.105 282.895 373 284 373H290C291.105 373 292 372.105 292 371V335C292 333.895 291.105 333 290 333Z" fill="#0F172A"></path>
<text fill="#0F172A" style="white-space: pre" xml:space="preserve" font-family="Calistoga" font-size="25" letter-spacing="0em"><tspan x="35" y="538.25">S&#39;arrêter pour mieux construire.</tspan></text>
<text fill="#475569" style="white-space: pre" xml:space="preserve" font-family="Calisto MT" font-size="24" letter-spacing="0em"><tspan x="35" y="600.344">Tu viens de trouver un super riff ? Arrête de le </tspan><tspan x="35" y="628.344">jouer en boucle. Pose ta guitare et demande-toi </tspan><tspan x="35" y="656.344">: &#34;Où ça va ?&#34;</tspan></text>
<text fill="#0F172A" style="white-space: pre" xml:space="preserve" font-family="Calistoga" font-size="20" letter-spacing="0em"><tspan x="35" y="791">Laisse ce brouillon maturer dans ton esprit.</tspan></text>
<path d="M530 -41H24C11.8497 -41 2 -31.1503 2 -19V762C2 774.15 11.8497 784 24 784H530C542.15 784 552 774.15 552 762V-19C552 -31.1503 542.15 -41 530 -41Z" fill="url(#paint0_radial_8334_155)"></path>
</g>
<rect x="1" y="1" width="552" height="827" rx="34" stroke="#0F172A" stroke-width="2"></rect>
<defs>
<radialGradient id="paint0_radial_8334_155" cx="0" cy="0" r="1" gradientUnits="userSpaceOnUse" gradientTransform="translate(277 344) rotate(90) scale(165 165)">
<stop stop-color="#0F172A" stop-opacity="0.15"></stop>
<stop offset="1" stop-color="#0F172A" stop-opacity="0"></stop>
</radialGradient>
<clipPath id="clip0_8334_155">
<rect x="2" y="2" width="550" height="825" rx="33" fill="white"></rect>
</clipPath>
</defs>
</svg>