<svg width="554" height="829" viewBox="0 0 554 829" fill="none" xmlns="http://www.w3.org/2000/svg">
<g clip-path="url(#clip0_8334_54)">
<path d="M530 2H24C11.8497 2 2 11.8497 2 24V805C2 817.15 11.8497 827 24 827H530C542.15 827 552 817.15 552 805V24C552 11.8497 542.15 2 530 2Z" fill="#FAFAFA"></path>
<text fill="#0F172A" fill-opacity="0.8" style="white-space: pre" xml:space="preserve" font-family="Calistoga" font-size="25" letter-spacing="0em"><tspan x="35" y="53.25">MINDSET • (DÉ)BLOCAGE</tspan></text>
<text fill="#0F172A" style="white-space: pre" xml:space="preserve" font-family="Calistoga" font-size="52" letter-spacing="0em"><tspan x="35" y="131.2">L&#39;action immédiate</tspan></text>
<path d="M101 180H35V185.5H101V180Z" fill="#0F172A"></path>
<path d="M7.5 72H2V154.5H7.5V72Z" fill="#0F172A"></path>
<path d="M105.738 318.928H38.7231C36.6669 318.928 35 321.07 35 323.713V342.856C35 345.499 36.6669 347.641 38.7231 347.641H105.738C107.795 347.641 109.462 345.499 109.462 342.856V323.713C109.462 321.07 107.795 318.928 105.738 318.928Z" fill="#E2E8F0"></path>
<path d="M198.817 318.928H131.801C129.745 318.928 128.078 321.07 128.078 323.713V342.856C128.078 345.499 129.745 347.641 131.801 347.641H198.817C200.873 347.641 202.54 345.499 202.54 342.856V323.713C202.54 321.07 200.873 318.928 198.817 318.928Z" fill="#E2E8F0"></path>
<path d="M325.398 295H228.598C224.486 295 221.152 299.285 221.152 304.571V361.998C221.152 367.284 224.486 371.569 228.598 371.569H325.398C329.511 371.569 332.845 367.284 332.845 361.998V304.571C332.845 299.285 329.511 295 325.398 295Z" fill="#0F172A"></path>
<path d="M267.691 314.143L291.891 333.285L267.691 352.427V314.143Z" fill="white"></path>
<path d="M422.199 318.928H355.184C353.128 318.928 351.461 321.07 351.461 323.713V342.856C351.461 345.499 353.128 347.641 355.184 347.641H422.199C424.256 347.641 425.922 345.499 425.922 342.856V323.713C425.922 321.07 424.256 318.928 422.199 318.928Z" stroke="#C5C8CD" stroke-dasharray="4 2"></path>
<path opacity="0.5" d="M515.278 318.928H448.262C446.206 318.928 444.539 321.07 444.539 323.713V342.856C444.539 345.499 446.206 347.641 448.262 347.641H515.278C517.334 347.641 519.001 345.499 519.001 342.856V323.713C519.001 321.07 517.334 318.928 515.278 318.928Z" stroke="#CDD3DB" stroke-dasharray="4 2"></path>
<text fill="#0F172A" style="white-space: pre" xml:space="preserve" font-family="Calistoga" font-size="25" letter-spacing="0em"><tspan x="35" y="538.25">Évite la paralysie analytique.</tspan></text>
<text fill="#475569" style="white-space: pre" xml:space="preserve" font-family="Calisto MT" font-size="24" letter-spacing="0em"><tspan x="35" y="600.344">Prends ta guitare et joue instinctivement une </tspan><tspan x="35" y="628.344">phrase ou une progression d’accords. Qu’est ce </tspan><tspan x="35" y="656.344">que ça t’inspire ? C’est ton point de départ pour </tspan><tspan x="35" y="684.344">cette session.</tspan></text>
<text fill="#0F172A" style="white-space: pre" xml:space="preserve" font-family="Calistoga" font-size="20" letter-spacing="0em"><tspan x="35" y="791">L&#39;inspiration vient pendant l&#39;action.</tspan></text>
<path d="M519 738.25H35V739.75H519V738.25Z" fill="#E2E8F0"></path>
<path d="M530 -41H24C11.8497 -41 2 -31.1503 2 -19V762C2 774.15 11.8497 784 24 784H530C542.15 784 552 774.15 552 762V-19C552 -31.1503 542.15 -41 530 -41Z" fill="url(#paint0_radial_8334_54)"></path>
</g>
<rect x="1" y="1" width="552" height="827" rx="34" stroke="#0F172A" stroke-width="2"></rect>
<defs>
<radialGradient id="paint0_radial_8334_54" cx="0" cy="0" r="1" gradientUnits="userSpaceOnUse" gradientTransform="translate(277 344) rotate(90) scale(165 165)">
<stop stop-color="#0F172A" stop-opacity="0.15"></stop>
<stop offset="1" stop-color="#0F172A" stop-opacity="0"></stop>
</radialGradient>
<clipPath id="clip0_8334_54">
<rect x="2" y="2" width="550" height="825" rx="33" fill="white"></rect>
</clipPath>
</defs>
</svg>