<svg width="554" height="829" viewBox="0 0 554 829" fill="none" xmlns="http://www.w3.org/2000/svg">
<g clip-path="url(#clip0_8334_374)">
<path d="M528 2H26C12.7452 2 2 12.7452 2 26V803C2 816.255 12.7452 827 26 827H528C541.255 827 552 816.255 552 803V26C552 12.7452 541.255 2 528 2Z" fill="#FAFAFA"></path>
<path d="M7.5 72H2V154.5H7.5V72Z" fill="#8B5CF6"></path>
<text fill="#8B5CF6" fill-opacity="0.8" style="white-space: pre" xml:space="preserve" font-family="Calistoga" font-size="25" letter-spacing="0em"><tspan x="35" y="53.25">THÉORIE • COMPO / ARRANGEMENT</tspan></text>
<text fill="#0F172A" style="white-space: pre" xml:space="preserve" font-family="Calistoga" font-size="52" letter-spacing="0em"><tspan x="35" y="131.2">Le contrepoint</tspan></text>
<path d="M101 180H35V185.5H101V180Z" fill="#8B5CF6"></path>
<path d="M97 348.321C187 288.321 367 408.321 457 348.321" stroke="url(#paint0_linear_8334_374)" stroke-width="4" stroke-linecap="round"></path>
<path opacity="0.5" d="M97 348.321C187 408.321 367 288.321 457 348.321" stroke="#8B5CF6" stroke-width="3" stroke-linecap="round" stroke-dasharray="6 8"></path>
<path d="M277 354.32C280.314 354.32 283 351.634 283 348.32C283 345.007 280.314 342.32 277 342.32C273.686 342.32 271 345.007 271 348.32C271 351.634 273.686 354.32 277 354.32Z" fill="#0F172A"></path>
<text fill="#8B5CF6" style="white-space: pre" xml:space="preserve" font-family="Calistoga" font-size="12" letter-spacing="0em"><tspan x="204.701" y="411.52">INDÉPENDANCE DES VOIX</tspan></text>
<path opacity="0.2" d="M277 360.32C283.627 360.32 289 354.948 289 348.32C289 341.693 283.627 336.32 277 336.32C270.373 336.32 265 341.693 265 348.32C265 354.948 270.373 360.32 277 360.32Z" stroke="#8B5CF6" stroke-width="1.5"></path>
<text fill="#8B5CF6" style="white-space: pre" xml:space="preserve" font-family="Calistoga" font-size="25" letter-spacing="0em"><tspan x="35" y="538.25">L&#39;entrelacement des lignes.</tspan></text>
<text fill="#475569" style="white-space: pre" xml:space="preserve" font-family="Calisto MT" font-size="24" letter-spacing="0em"><tspan x="35" y="600.344">Pense la musique comme des lignes </tspan><tspan x="35" y="628.344">indépendantes plutôt que des accords. Ajoute </tspan><tspan x="35" y="656.344">une voix avec son propre rythme.</tspan></text>
<text fill="#8B5CF6" style="white-space: pre" xml:space="preserve" font-family="Calistoga" font-size="20" letter-spacing="0em"><tspan x="35" y="791">La magie naît du croisement des voix.</tspan></text>
<path d="M530 -41H24C11.8497 -41 2 -31.1503 2 -19V762C2 774.15 11.8497 784 24 784H530C542.15 784 552 774.15 552 762V-19C552 -31.1503 542.15 -41 530 -41Z" fill="url(#paint1_radial_8334_374)"></path>
<path d="M519 738.25H35V739.75H519V738.25Z" fill="#E2E8F0"></path>
</g>
<rect x="1" y="1" width="552" height="827" rx="34" stroke="#8B5CF6" stroke-width="2"></rect>
<defs>
<linearGradient id="paint0_linear_8334_374" x1="97" y1="331" x2="457" y2="331" gradientUnits="userSpaceOnUse">
<stop stop-color="#8B5CF6"></stop>
<stop offset="1" stop-color="#8B5CF6"></stop>
</linearGradient>
<radialGradient id="paint1_radial_8334_374" cx="0" cy="0" r="1" gradientUnits="userSpaceOnUse" gradientTransform="translate(277 344) rotate(90) scale(165 165)">
<stop stop-color="#8B5CF6" stop-opacity="0.15"></stop>
<stop offset="1" stop-color="#8B5CF6" stop-opacity="0"></stop>
</radialGradient>
<clipPath id="clip0_8334_374">
<rect x="2" y="2" width="550" height="825" rx="33" fill="white"></rect>
</clipPath>
</defs>
</svg>