<svg width="554" height="829" viewBox="0 0 554 829" fill="none" xmlns="http://www.w3.org/2000/svg">
<g clip-path="url(#clip0_8334_25)">
<path d="M528 2H26C12.7452 2 2 12.7452 2 26V803C2 816.255 12.7452 827 26 827H528C541.255 827 552 816.255 552 803V26C552 12.7452 541.255 2 528 2Z" fill="#FAFAFA"></path>
<path d="M7.5 72H2V154.5H7.5V72Z" fill="#F59E0B"></path>
<text fill="#F59E0B" fill-opacity="0.8" style="white-space: pre" xml:space="preserve" font-family="Calistoga" font-size="25" letter-spacing="0em"><tspan x="35" y="53.25">DÉCLENCHEURS • INSPIRATION</tspan></text>
<text fill="#0F172A" style="white-space: pre" xml:space="preserve" font-family="Calistoga" font-size="52" letter-spacing="0em"><tspan x="35" y="131.2">L&#39;approche </tspan><tspan x="35" y="199.2">extra-musicale</tspan></text>
<path d="M131 232H65V237.5H131V232Z" fill="#F59E0B"></path>
<path d="M160.514 311H96.4857C91.2469 311 87 315.247 87 320.486V384.514C87 389.753 91.2469 394 96.4857 394H160.514C165.753 394 170 389.753 170 384.514V320.486C170 315.247 165.753 311 160.514 311Z" fill="white" stroke="#0F172A" stroke-width="3"></path>
<path d="M98.8574 370.287L116.643 346.572L134.429 364.358L146.286 352.501L158.143 370.287" stroke="#0F172A" stroke-width="3" stroke-linecap="round" stroke-linejoin="round"></path>
<path d="M146.286 341.828C150.215 341.828 153.4 338.643 153.4 334.714C153.4 330.785 150.215 327.6 146.286 327.6C142.357 327.6 139.172 330.785 139.172 334.714C139.172 338.643 142.357 341.828 146.286 341.828Z" stroke="#0F172A" stroke-width="2"></path>
<path d="M181.857 352.5H371.572" stroke="url(#paint0_linear_8334_25)" stroke-width="4" stroke-linecap="round" stroke-dasharray="8 12"></path>
<path d="M456.942 311H392.913C387.675 311 383.428 315.247 383.428 320.486V384.514C383.428 389.753 387.675 394 392.913 394H456.942C462.181 394 466.428 389.753 466.428 384.514V320.486C466.428 315.247 462.181 311 456.942 311Z" fill="white" fill-opacity="0.05" stroke="#F59E0B" stroke-width="3"></path>
<path d="M405.956 346.572H403.584C402.275 346.572 401.213 347.634 401.213 348.944V361.987C401.213 363.296 402.275 364.358 403.584 364.358H405.956C407.265 364.358 408.327 363.296 408.327 361.987V348.944C408.327 347.634 407.265 346.572 405.956 346.572Z" fill="#F59E0B"></path>
<path d="M417.813 328.785H415.442C414.132 328.785 413.07 329.847 413.07 331.157V373.842C413.07 375.152 414.132 376.214 415.442 376.214H417.813C419.123 376.214 420.185 375.152 420.185 373.842V331.157C420.185 329.847 419.123 328.785 417.813 328.785Z" fill="#F59E0B"></path>
<path d="M429.671 340.643H427.299C425.989 340.643 424.928 341.704 424.928 343.014V367.914C424.928 369.224 425.989 370.285 427.299 370.285H429.671C430.98 370.285 432.042 369.224 432.042 367.914V343.014C432.042 341.704 430.98 340.643 429.671 340.643Z" fill="#F59E0B"></path>
<path d="M441.528 322.857H439.157C437.847 322.857 436.785 323.919 436.785 325.229V379.772C436.785 381.081 437.847 382.143 439.157 382.143H441.528C442.838 382.143 443.899 381.081 443.899 379.772V325.229C443.899 323.919 442.838 322.857 441.528 322.857Z" fill="#F59E0B"></path>
<text fill="#F59E0B" style="white-space: pre" xml:space="preserve" font-family="Calistoga" font-size="25" letter-spacing="0em"><tspan x="35" y="538.25">Traduire le visuel en fréquences.</tspan></text>
<text fill="#475569" style="white-space: pre" xml:space="preserve" font-family="Calisto MT" font-size="24" letter-spacing="0em"><tspan x="35" y="600.344">Utilise une photo, un film ou un livre pour </tspan><tspan x="35" y="628.344">dicter tes choix sonores. Ne pense pas aux </tspan><tspan x="35" y="656.344">notes, mais à l&#39;ambiance.</tspan></text>
<text fill="#F59E0B" style="white-space: pre" xml:space="preserve" font-family="Calistoga" font-size="20" letter-spacing="0em"><tspan x="35.4492" y="791">Quelle couleur aurait cet accord s&#39;il était peint ?</tspan></text>
<path d="M519 738.25H35V739.75H519V738.25Z" fill="#E2E8F0"></path>
<path d="M530 -41H24C11.8497 -41 2 -31.1503 2 -19V762C2 774.15 11.8497 784 24 784H530C542.15 784 552 774.15 552 762V-19C552 -31.1503 542.15 -41 530 -41Z" fill="url(#paint1_radial_8334_25)"></path>
</g>
<rect x="1" y="1" width="552" height="827" rx="34" stroke="#F59E0B" stroke-width="2"></rect>
<defs>
<linearGradient id="paint0_linear_8334_25" x1="-nan" y1="-nan" x2="-nan" y2="-nan" gradientUnits="userSpaceOnUse">
<stop stop-color="#0F172A"></stop>
<stop offset="1" stop-color="#0052FF"></stop>
</linearGradient>
<radialGradient id="paint1_radial_8334_25" cx="0" cy="0" r="1" gradientUnits="userSpaceOnUse" gradientTransform="translate(277 344) rotate(90) scale(165 165)">
<stop stop-color="#F59E0B" stop-opacity="0.15"></stop>
<stop offset="1" stop-color="#F59E0B" stop-opacity="0"></stop>
</radialGradient>
<clipPath id="clip0_8334_25">
<rect x="2" y="2" width="550" height="825" rx="33" fill="white"></rect>
</clipPath>
</defs>
</svg>