<svg width="554" height="829" viewBox="0 0 554 829" fill="none" xmlns="http://www.w3.org/2000/svg">
<g clip-path="url(#clip0_8308_545)">
<path d="M534.162 2H19.8378C9.98627 2 2 9.91497 2 19.6786V809.321C2 819.085 9.98627 827 19.8378 827H534.162C544.014 827 552 819.085 552 809.321V19.6786C552 9.91497 544.014 2 534.162 2Z" fill="white"></path>
<path d="M552 2H2V105.125H552V2Z" fill="#475569"></path>
<text fill="white" style="white-space: pre" xml:space="preserve" font-family="Roboto Flex" font-size="52" font-weight="bold" letter-spacing="0em"><tspan x="35" y="72.2734">STRUCTURE</tspan></text>
<text fill="#1A1A1A" style="white-space: pre" xml:space="preserve" font-family="Calistoga" font-size="36" letter-spacing="0em"><tspan x="34.9999" y="159.1">Boucle évolutive</tspan></text>
<path d="M84.9999 181H34.9999V187H84.9999V181Z" fill="#475569"></path>
<path d="M277.001 539.723C350.887 539.723 410.784 480.361 410.784 407.134C410.784 333.907 350.887 274.545 277.001 274.545C203.114 274.545 143.217 333.907 143.217 407.134C143.217 480.361 203.114 539.723 277.001 539.723Z" fill="url(#paint0_radial_8308_545)"></path>
<path d="M490.82 260H63.1801C57.0055 260 52 264.62 52 270.32V507.68C52 513.38 57.0055 518 63.1801 518H490.82C496.995 518 502 513.38 502 507.68V270.32C502 264.62 496.995 260 490.82 260Z" fill="#F1F5F9"></path>
<text fill="#1F2937" style="white-space: pre" xml:space="preserve" font-family="Calisto MT" font-size="29" letter-spacing="0em"><tspan x="35" y="639.582">Choisis un motif simple. Répète-le à </tspan><tspan x="35" y="672.582">l&#39;infini en ne changeant qu&#39;un seul </tspan><tspan x="35" y="705.582">détail à la fois.</tspan></text>
<path d="M277 388.625C304.5 361.125 332 361.125 359.5 388.625C387 416.125 414.5 416.125 442 388.625" stroke="#C3C3C3" stroke-width="4"></path>
<path d="M194.5 388.625C222 416.125 249.5 416.125 277 388.625" stroke="#475569" stroke-width="4"></path>
<path d="M112 388.625C139.5 361.125 167 361.125 194.5 388.625" stroke="#C3C3C3" stroke-width="4"></path>
<path d="M277 394.125C280.038 394.125 282.5 391.663 282.5 388.625C282.5 385.587 280.038 383.125 277 383.125C273.962 383.125 271.5 385.587 271.5 388.625C271.5 391.663 273.962 394.125 277 394.125Z" fill="#475569"></path>
<path d="M441.5 394C444.538 394 447 391.538 447 388.5C447 385.462 444.538 383 441.5 383C438.462 383 436 385.462 436 388.5C436 391.538 438.462 394 441.5 394Z" fill="#C3C3C3"></path>
</g>
<rect x="1" y="1" width="552" height="827" rx="34" stroke="#475569" stroke-width="2"></rect>
<defs>
<radialGradient id="paint0_radial_8308_545" cx="0" cy="0" r="1" gradientUnits="userSpaceOnUse" gradientTransform="translate(13521.6 13533.5) scale(13378.4 13258.9)">
<stop stop-color="#CC1B1B" stop-opacity="0.06"></stop>
<stop offset="1" stop-color="#CC1B1B" stop-opacity="0"></stop>
</radialGradient>
<clipPath id="clip0_8308_545">
<rect x="2" y="2" width="550" height="825" rx="33" fill="white"></rect>
</clipPath>
</defs>
</svg>