<svg width="554" height="829" viewBox="0 0 554 829" fill="none" xmlns="http://www.w3.org/2000/svg">
<g clip-path="url(#clip0_8308_568)">
<path d="M534.162 2H19.8378C9.98627 2 2 9.91497 2 19.6786V809.321C2 819.085 9.98627 827 19.8378 827H534.162C544.014 827 552 819.085 552 809.321V19.6786C552 9.91497 544.014 2 534.162 2Z" fill="white"></path>
<path d="M552 2H2V105.125H552V2Z" fill="#475569"></path>
<text fill="white" style="white-space: pre" xml:space="preserve" font-family="Roboto Flex" font-size="52" font-weight="bold" letter-spacing="0em"><tspan x="35" y="72.2734">STRUCTURE</tspan></text>
<text fill="#1A1A1A" style="white-space: pre" xml:space="preserve" font-family="Calistoga" font-size="36" letter-spacing="0em"><tspan x="35" y="159.1">Suite enchaînée</tspan></text>
<path d="M85 181H35V187H85V181Z" fill="#475569"></path>
<path d="M277.001 539.723C350.887 539.723 410.784 480.361 410.784 407.134C410.784 333.907 350.887 274.545 277.001 274.545C203.114 274.545 143.217 333.907 143.217 407.134C143.217 480.361 203.114 539.723 277.001 539.723Z" fill="url(#paint0_radial_8308_568)"></path>
<path d="M490.82 260H63.1801C57.0055 260 52 264.62 52 270.32V507.68C52 513.38 57.0055 518 63.1801 518H490.82C496.995 518 502 513.38 502 507.68V270.32C502 264.62 496.995 260 490.82 260Z" fill="#F1F5F9"></path>
<text fill="#1F2937" style="white-space: pre" xml:space="preserve" font-family="Calisto MT" font-size="29" letter-spacing="0em"><tspan x="35" y="639.582">Trois ambiances, zéro pause. Assemble </tspan><tspan x="35" y="672.582">trois parties totalement différentes les </tspan><tspan x="35" y="705.582">uns des autres. Force toi à rendre les </tspan><tspan x="35" y="738.582">transitions cohérentes.</tspan></text>
<path d="M211 388H252.25" stroke="#475569" stroke-width="3"></path>
<path d="M183.5 416C198.688 416 211 403.688 211 388.5C211 373.312 198.688 361 183.5 361C168.312 361 156 373.312 156 388.5C156 403.688 168.312 416 183.5 416Z" fill="#475569"></path>
<path d="M307.25 361H252.25V416H307.25V361Z" fill="#475569"></path>
<path d="M342.25 361H397.25L369.75 416L342.25 361Z" fill="#475569"></path>
<path d="M307 388H374" stroke="#475569" stroke-width="3"></path>
</g>
<rect x="1" y="1" width="552" height="827" rx="34" stroke="#475569" stroke-width="2"></rect>
<defs>
<radialGradient id="paint0_radial_8308_568" cx="0" cy="0" r="1" gradientUnits="userSpaceOnUse" gradientTransform="translate(13521.6 13533.5) scale(13378.4 13258.9)">
<stop stop-color="#CC1B1B" stop-opacity="0.06"></stop>
<stop offset="1" stop-color="#CC1B1B" stop-opacity="0"></stop>
</radialGradient>
<clipPath id="clip0_8308_568">
<rect x="2" y="2" width="550" height="825" rx="33" fill="white"></rect>
</clipPath>
</defs>
</svg>